<svg width="36" height="31" viewBox="0 0 36 31" fill="none" xmlns="http://www.w3.org/2000/svg">
<path d="M33.1219 9.79278L7.69446 29.5804L1.04362 21.034L26.4711 1.24634L33.1219 9.79278Z" fill="#FDB4FF" style="fill:#FDB4FF;fill:color(display-p3 0.9922 0.7059 1.0000);fill-opacity:1;"/>
<path d="M1.16825 26.9834C2.81061 29.4673 5.57506 30.7306 7.3428 29.8049C9.11054 28.8792 9.21219 26.115 7.56983 23.6311C5.92747 21.1471 3.16301 19.8838 1.39526 20.8096C-0.372476 21.7353 -0.474113 24.4994 1.16825 26.9834Z" fill="#FF435F" style="fill:#FF435F;fill:color(display-p3 1.0000 0.2645 0.3734);fill-opacity:1;"/>
<path d="M26.5957 7.19571C28.238 9.6797 31.0025 10.9429 32.7702 10.0172C34.538 9.0915 36.8812 6.29257 33.9272 1.925C31.2303 -1.07401 28.5904 0.0961943 26.8227 1.02191C25.055 1.94762 24.9533 4.71172 26.5957 7.19571Z" fill="#FDB4FF" style="fill:#FDB4FF;fill:color(display-p3 0.9922 0.7059 1.0000);fill-opacity:1;"/>
</svg>
