<svg width="71" height="71" viewBox="0 0 71 71" fill="none" xmlns="http://www.w3.org/2000/svg">
<path d="M35.6131 71.0017C55.1566 71.0017 70.9997 55.2657 70.9997 35.8544C70.9997 16.4431 55.1566 0.707031 35.6131 0.707031C16.0697 0.707031 0.226562 16.4431 0.226562 35.8544C0.226562 55.2657 16.0697 71.0017 35.6131 71.0017Z" fill="#FFB1BD" style="fill:#FFB1BD;fill:color(display-p3 1.0000 0.6941 0.7424);fill-opacity:1;"/>
<path d="M34.6955 0C54.4017 0 71.7435 14.497 70.9754 37.2284C48.7937 27.3906 25.3905 27.1064 0 35.8704C0.505585 15.4249 14.9894 0 34.6955 0Z" fill="#D4FF8B" style="fill:#D4FF8B;fill:color(display-p3 0.8314 1.0000 0.5451);fill-opacity:1;"/>
<path d="M36.0936 70.9883C55.8307 70.9883 68 58.0039 70.5 41.5039C32.5 55.5 33 53 0.683594 41.6218C3.44006 58.0393 16.3564 70.9883 36.0936 70.9883Z" fill="#FCFFE2" style="fill:#FCFFE2;fill:color(display-p3 0.9882 1.0000 0.8863);fill-opacity:1;"/>
<path d="M53.2109 46C56.5246 46 59.2109 43.3138 59.2109 40.0001C59.2109 36.6864 56.5246 34 53.2109 34C49.8972 34 47.2109 36.6864 47.2109 40.0001C47.2109 43.3138 49.8972 46 53.2109 46Z" fill="#F45BD5" style="fill:#F45BD5;fill:color(display-p3 0.9561 0.3587 0.8350);fill-opacity:1;"/>
<path d="M52.711 39.4991C55.7147 40.0162 57.2985 41.6902 56.9084 43.3275L46.0312 41.4317C46.4216 39.7771 49.7074 38.9648 52.711 39.4991Z" fill="#720026" style="fill:#720026;fill:color(display-p3 0.4461 0.0000 0.1487);fill-opacity:1;"/>
<path d="M57.7148 43.4961C60.716 44.0303 62.0252 42.7962 62.4515 41.159L52.7151 39.4961C52.2888 41.1505 54.7134 42.9791 57.7148 43.4961Z" fill="#720026" style="fill:#720026;fill:color(display-p3 0.4461 0.0000 0.1487);fill-opacity:1;"/>
<path d="M18.2656 46C14.9519 46 12.2656 43.3138 12.2656 40.0001C12.2656 36.6864 14.9519 34 18.2656 34C21.5793 34 24.2656 36.6864 24.2656 40.0001C24.2656 43.3138 21.5793 46 18.2656 46Z" fill="#F45BD5" style="fill:#F45BD5;fill:color(display-p3 0.9561 0.3587 0.8350);fill-opacity:1;"/>
<path d="M18.7656 39.4991C15.7618 40.0162 14.178 41.6902 14.5681 43.3275L25.4453 41.4317C25.055 39.7771 21.7691 38.9648 18.7656 39.4991Z" fill="#720026" style="fill:#720026;fill:color(display-p3 0.4461 0.0000 0.1487);fill-opacity:1;"/>
<path d="M13.7617 43.4961C10.7606 44.0303 9.45138 42.7962 9.0251 41.159L18.7614 39.4961C19.1878 41.1505 16.7631 42.9791 13.7617 43.4961Z" fill="#720026" style="fill:#720026;fill:color(display-p3 0.4461 0.0000 0.1487);fill-opacity:1;"/>
</svg>
