<svg width="64" height="63" viewBox="0 0 64 63" fill="none" xmlns="http://www.w3.org/2000/svg">
<path d="M38.0893 55.9393C24.0232 59.5336 9.82299 51.4998 6.37229 37.9953C2.92158 24.4908 11.5271 10.6295 25.5932 7.03525C39.6593 3.44103 53.8595 11.475 57.3102 24.9795C60.761 38.4839 52.1554 52.3451 38.0893 55.9393Z" fill="#FFAFBC" style="fill:#FFAFBC;fill:color(display-p3 1.0000 0.6880 0.7372);fill-opacity:1;"/>
<path d="M26.1296 6.38082C11.9464 10.005 2.04195 23.2799 6.63571 38.9529C20.8518 28.0293 37.6454 23.5275 57.4778 24.9551C53.4794 10.8241 40.3129 2.75668 26.1296 6.38082Z" fill="#CE3577" style="fill:#CE3577;fill:color(display-p3 0.8082 0.2066 0.4673);fill-opacity:1;"/>
<path d="M37.7443 56.0239C23.5388 59.6538 13.5282 52.8719 7.72479 41.9303C33.1443 45.9745 37.3323 45.5041 58.0097 29.0814C58.9443 41.01 51.9498 52.3941 37.7443 56.0239Z" fill="#D4FF8B" style="fill:#D4FF8B;fill:color(display-p3 0.8314 1.0000 0.5451);fill-opacity:1;"/>
<path d="M22.1998 40.0365C19.9005 40.6241 17.6317 39.5159 17.1323 37.5613C16.6329 35.6067 18.0919 33.5458 20.3912 32.9583C22.6904 32.3708 24.9593 33.4791 25.4587 35.4337C25.9581 37.3883 24.4991 39.449 22.1998 40.0365Z" fill="#DC4EBF" style="fill:#DC4EBF;fill:color(display-p3 0.8612 0.3063 0.7487);fill-opacity:1;"/>
<path d="M44.6477 34.3009C46.9019 33.7249 48.3244 31.6735 47.8249 29.7189C47.3255 27.7643 45.0932 26.6467 42.839 27.2227C40.5849 27.7987 39.1624 29.8501 39.6618 31.8047C40.1613 33.7593 42.3935 34.8769 44.6477 34.3009Z" fill="#DC4EBF" style="fill:#DC4EBF;fill:color(display-p3 0.8612 0.3063 0.7487);fill-opacity:1;"/>
<path d="M43.4446 30.584C45.4442 30.338 47.124 31.0382 47.1918 32.1271L39.9437 32.9881C39.8734 31.8883 41.4425 30.819 43.4446 30.584Z" fill="#720026" style="fill:#720026;fill:color(display-p3 0.4461 0.0000 0.1487);fill-opacity:1;"/>
<path d="M46.8259 32.1573C48.8692 31.8994 50.4971 30.8169 50.4582 29.7237L43.0491 30.6172C43.088 31.7104 44.7799 32.4043 46.8259 32.1573Z" fill="#720026" style="fill:#720026;fill:color(display-p3 0.4461 0.0000 0.1487);fill-opacity:1;"/>
<path d="M21.3821 36.2509C19.4828 37.0608 18.3557 38.4633 18.8591 39.3626L25.7332 36.4158C25.2271 35.5064 23.2786 35.4308 21.3821 36.2509Z" fill="#720026" style="fill:#720026;fill:color(display-p3 0.4461 0.0000 0.1487);fill-opacity:1;"/>
<path d="M19.2715 39.1629C17.3766 39.9825 15.4099 39.9116 14.8828 39.0183L21.7487 36.0629C22.2785 36.9663 21.1693 38.3534 19.2715 39.1629Z" fill="#720026" style="fill:#720026;fill:color(display-p3 0.4461 0.0000 0.1487);fill-opacity:1;"/>
</svg>
