<svg width="53" height="51" viewBox="0 0 53 51" fill="none" xmlns="http://www.w3.org/2000/svg">
<path d="M26.4553 0.00118884C40.9733 0.00118884 52.7426 11.3004 52.7426 25.2388C52.7426 39.1772 40.9733 50.4766 26.4553 50.4766C11.9372 50.4766 0.167969 39.1772 0.167969 25.2388C0.167969 11.3004 11.9372 0.00118884 26.4553 0.00118884Z" fill="#FFAFBC" style="fill:#FFAFBC;fill:color(display-p3 1.0000 0.6880 0.7372);fill-opacity:1;"/>
<path d="M25.7739 50.9766C40.4129 50.9766 53.2955 40.5669 52.7248 24.2445C36.2469 31.3086 18.8616 31.5127 0 25.2197C0.37558 39.9007 11.135 50.9766 25.7739 50.9766Z" fill="#CE3577" style="fill:#CE3577;fill:color(display-p3 0.8082 0.2066 0.4673);fill-opacity:1;"/>
<path d="M26.8125 0.00390625C41.4745 0.00390625 49.4944 9.05295 52.4084 21.0907C28.7814 10.8794 24.6073 10.2982 0.507812 21.0907C2.55548 9.302 12.1505 0.00390625 26.8125 0.00390625Z" fill="#FF425E" style="fill:#FF425E;fill:color(display-p3 1.0000 0.2575 0.3675);fill-opacity:1;"/>
<path d="M37.9142 19.3428C40.2873 19.3428 42.2111 20.9782 42.2111 22.9955C42.2111 25.0129 40.2873 26.6484 37.9142 26.6484C35.541 26.6484 33.6172 25.0129 33.6172 22.9955C33.6172 20.9782 35.541 19.3428 37.9142 19.3428Z" fill="#DC4EBF" style="fill:#DC4EBF;fill:color(display-p3 0.8612 0.3063 0.7487);fill-opacity:1;"/>
<path d="M14.7443 19.3428C12.4177 19.3428 10.5316 20.9782 10.5316 22.9956C10.5316 25.013 12.4177 26.6484 14.7443 26.6484C17.0709 26.6484 18.957 25.013 18.957 22.9956C18.957 20.9782 17.0709 19.3428 14.7443 19.3428Z" fill="#DC4EBF" style="fill:#DC4EBF;fill:color(display-p3 0.8612 0.3063 0.7487);fill-opacity:1;"/>
<path d="M14.9894 23.2404C12.9911 22.9836 11.537 21.8894 11.7408 20.8176L18.9765 21.7778C18.7723 22.8607 16.9873 23.5083 14.9894 23.2404Z" fill="#720026" style="fill:#720026;fill:color(display-p3 0.4461 0.0000 0.1487);fill-opacity:1;"/>
<path d="M12.1027 20.8775C10.0591 20.6215 8.21393 21.2673 7.98099 22.3361L15.3806 23.3047C15.6136 22.2359 14.1461 21.1447 12.1027 20.8775Z" fill="#720026" style="fill:#720026;fill:color(display-p3 0.4461 0.0000 0.1487);fill-opacity:1;"/>
<path d="M37.7698 23.2118C39.8105 22.8973 41.2497 21.8175 40.9847 20.8215L33.595 21.9748C33.8602 22.9812 35.7293 23.5368 37.7698 23.2118Z" fill="#720026" style="fill:#720026;fill:color(display-p3 0.4461 0.0000 0.1487);fill-opacity:1;"/>
<path d="M40.5367 20.9145C42.5756 20.5895 44.4634 21.1451 44.753 22.1411L37.3692 23.3047C37.0796 22.2983 38.4976 21.229 40.5367 20.9145Z" fill="#720026" style="fill:#720026;fill:color(display-p3 0.4461 0.0000 0.1487);fill-opacity:1;"/>
</svg>
