<svg width="25" height="29" viewBox="0 0 25 29" fill="none" xmlns="http://www.w3.org/2000/svg">
<path fill-rule="evenodd" clip-rule="evenodd" d="M18.1852 1.81466C18.7858 2.22019 19.2882 2.81072 19.5271 3.51678C19.7708 4.23687 19.7237 5.03101 19.296 5.78866L19.2819 5.81368L18.2826 7.24674L14.2401 4.41284L5.06985 17.5637C6.03813 17.484 7.06364 17.7416 7.95114 18.3638C8.98965 19.0918 9.62548 20.1691 9.79201 21.2862L19.126 11.1822L22.9812 8.04725L20.177 12.1211L9.09202 24.1206C7.82558 25.8003 5.33777 26.1107 3.46472 24.7976C1.58097 23.477 1.02154 21.0069 2.18621 19.2354L2.24295 19.1516L14.0855 2.16852L14.1054 2.14543C15.2288 0.838023 16.9957 1.0114 18.1852 1.81466ZM7.2034 19.4361C5.92763 18.5417 4.22387 18.7769 3.39794 19.9613C2.57208 21.1457 2.93671 22.831 4.21246 23.7253C5.4882 24.6196 7.19197 24.3844 8.01792 23.2001C8.84384 22.0156 8.47917 20.3304 7.2034 19.4361ZM17.4594 2.90192C16.7194 2.4023 15.7902 2.36922 15.2021 3.03331L14.9879 3.34053L17.8753 5.36474L18.0907 5.05596C18.3373 4.60731 18.34 4.19838 18.2234 3.85359C18.1002 3.48958 17.8269 3.15013 17.4594 2.90192Z" fill="#82002B" style="fill:#82002B;fill:color(display-p3 0.5092 0.0000 0.1697);fill-opacity:1;"/>
</svg>
