<svg width="50" height="107" viewBox="0 0 50 107" fill="none" xmlns="http://www.w3.org/2000/svg">
<path d="M43.1475 76.22V0H14.0775V76.22H43.1475Z" fill="url(#paint0_linear_4183_2326)"/>
<path d="M49.3776 85.2001C49.3776 96.9401 30.8576 97.53 18.9976 97.53C6.43755 94.56 9.9575 89.88 9.4475 79.25C9.4475 67.51 16.0275 63.9501 27.8975 63.9501C39.7575 63.9501 49.3776 73.4701 49.3776 85.2001Z" fill="url(#paint1_linear_4183_2326)"/>
<path d="M9.17749 102.65L9.45752 78.3H19.3575L19.0975 102.65H9.17749Z" fill="url(#paint2_linear_4183_2326)"/>
<path d="M19.0975 102.65L19.3776 78.3H29.2775L29.0074 102.65H19.0975Z" fill="url(#paint3_linear_4183_2326)"/>
<path d="M26.8875 102.6L27.2175 82.03H39.3975L39.0675 102.6H26.8875Z" fill="url(#paint4_linear_4183_2326)"/>
<path d="M39.1176 94.76L38.9976 84.47L49.2574 84.4601L49.3776 94.74L39.1176 94.76Z" fill="url(#paint5_linear_4183_2326)"/>
<path d="M1.1875 90.1901L14.4175 66.2101L23.3075 69.8L9.91748 94.2101L1.1875 90.1901Z" fill="url(#paint6_linear_4183_2326)"/>
<path d="M33.9679 106.906C36.7079 106.906 38.9178 105.006 38.9178 102.656C38.9178 100.306 36.7079 98.4062 33.9679 98.4062C31.2279 98.4062 29.0078 100.306 29.0078 102.656C29.0078 105.006 31.2279 106.906 33.9679 106.906Z" fill="#FF425E" style="fill:#FF425E;fill:color(display-p3 1.0000 0.2575 0.3675);fill-opacity:1;"/>
<path d="M24.0515 106.906C26.7815 106.906 29.0115 105.006 29.0115 102.656C29.0115 100.306 26.7815 98.4062 24.0515 98.4062C21.3115 98.4062 19.1016 100.306 19.1016 102.656C19.1016 105.006 21.3115 106.906 24.0515 106.906Z" fill="#FF425E" style="fill:#FF425E;fill:color(display-p3 1.0000 0.2575 0.3675);fill-opacity:1;"/>
<path d="M14.1396 106.906C16.8796 106.906 19.0997 105.006 19.0997 102.656C19.0997 100.306 16.8796 98.4062 14.1396 98.4062C11.4096 98.4062 9.17969 100.306 9.17969 102.656C9.17969 105.006 11.4096 106.906 14.1396 106.906Z" fill="#FF425E" style="fill:#FF425E;fill:color(display-p3 1.0000 0.2575 0.3675);fill-opacity:1;"/>
<path d="M4.95996 96.9531C7.69996 96.9531 9.91992 95.0431 9.91992 92.7031C9.91992 90.3531 7.69996 88.4531 4.95996 88.4531C2.22996 88.4531 0 90.3531 0 92.7031C0 95.0431 2.22996 96.9531 4.95996 96.9531Z" fill="#FF425E" style="fill:#FF425E;fill:color(display-p3 1.0000 0.2575 0.3675);fill-opacity:1;"/>
<path d="M44.1194 99.3204C46.8794 99.3104 49.1094 97.4003 49.1094 95.0503C49.0794 92.7003 46.8494 90.8104 44.0794 90.8204C41.3194 90.8304 39.0994 92.7404 39.1094 95.0904C39.1194 97.4304 41.3694 99.3304 44.1194 99.3204Z" fill="#FF425E" style="fill:#FF425E;fill:color(display-p3 1.0000 0.2575 0.3675);fill-opacity:1;"/>
<defs>
<linearGradient id="paint0_linear_4183_2326" x1="25.2825" y1="0" x2="25.2825" y2="102.65" gradientUnits="userSpaceOnUse">
<stop stop-color="#FF81E5" style="stop-color:#FF81E5;stop-color:color(display-p3 1.0000 0.5039 0.8994);stop-opacity:1;"/>
<stop offset="1" stop-color="#FFDAF9" style="stop-color:#FFDAF9;stop-color:color(display-p3 1.0000 0.8541 0.9756);stop-opacity:1;"/>
</linearGradient>
<linearGradient id="paint1_linear_4183_2326" x1="25.2825" y1="0" x2="25.2825" y2="102.65" gradientUnits="userSpaceOnUse">
<stop stop-color="#FF81E5" style="stop-color:#FF81E5;stop-color:color(display-p3 1.0000 0.5039 0.8994);stop-opacity:1;"/>
<stop offset="1" stop-color="#FFDAF9" style="stop-color:#FFDAF9;stop-color:color(display-p3 1.0000 0.8541 0.9756);stop-opacity:1;"/>
</linearGradient>
<linearGradient id="paint2_linear_4183_2326" x1="25.2825" y1="0" x2="25.2825" y2="102.65" gradientUnits="userSpaceOnUse">
<stop stop-color="#FF81E5" style="stop-color:#FF81E5;stop-color:color(display-p3 1.0000 0.5039 0.8994);stop-opacity:1;"/>
<stop offset="1" stop-color="#FFDAF9" style="stop-color:#FFDAF9;stop-color:color(display-p3 1.0000 0.8541 0.9756);stop-opacity:1;"/>
</linearGradient>
<linearGradient id="paint3_linear_4183_2326" x1="25.2825" y1="0" x2="25.2825" y2="102.65" gradientUnits="userSpaceOnUse">
<stop stop-color="#FF81E5" style="stop-color:#FF81E5;stop-color:color(display-p3 1.0000 0.5039 0.8994);stop-opacity:1;"/>
<stop offset="1" stop-color="#FFDAF9" style="stop-color:#FFDAF9;stop-color:color(display-p3 1.0000 0.8541 0.9756);stop-opacity:1;"/>
</linearGradient>
<linearGradient id="paint4_linear_4183_2326" x1="25.2825" y1="0" x2="25.2825" y2="102.65" gradientUnits="userSpaceOnUse">
<stop stop-color="#FF81E5" style="stop-color:#FF81E5;stop-color:color(display-p3 1.0000 0.5039 0.8994);stop-opacity:1;"/>
<stop offset="1" stop-color="#FFDAF9" style="stop-color:#FFDAF9;stop-color:color(display-p3 1.0000 0.8541 0.9756);stop-opacity:1;"/>
</linearGradient>
<linearGradient id="paint5_linear_4183_2326" x1="25.2825" y1="0" x2="25.2825" y2="102.65" gradientUnits="userSpaceOnUse">
<stop stop-color="#FF81E5" style="stop-color:#FF81E5;stop-color:color(display-p3 1.0000 0.5039 0.8994);stop-opacity:1;"/>
<stop offset="1" stop-color="#FFDAF9" style="stop-color:#FFDAF9;stop-color:color(display-p3 1.0000 0.8541 0.9756);stop-opacity:1;"/>
</linearGradient>
<linearGradient id="paint6_linear_4183_2326" x1="25.2825" y1="0" x2="25.2825" y2="102.65" gradientUnits="userSpaceOnUse">
<stop stop-color="#FF81E5" style="stop-color:#FF81E5;stop-color:color(display-p3 1.0000 0.5039 0.8994);stop-opacity:1;"/>
<stop offset="1" stop-color="#FFDAF9" style="stop-color:#FFDAF9;stop-color:color(display-p3 1.0000 0.8541 0.9756);stop-opacity:1;"/>
</linearGradient>
</defs>
</svg>
