<svg width="37" height="15" viewBox="0 0 37 15" fill="none" xmlns="http://www.w3.org/2000/svg">
<path d="M30.0777 8.12123C32.3319 7.54523 33.7544 5.49378 33.255 3.53918C32.7555 1.58458 30.5233 0.467006 28.2691 1.043C26.0149 1.619 24.5924 3.67045 25.0918 5.62505C25.5913 7.57965 27.8235 8.69723 30.0777 8.12123Z" fill="#DC4EBF" style="fill:#DC4EBF;fill:color(display-p3 0.8612 0.3063 0.7487);fill-opacity:1;"/>
<path d="M28.8785 4.40819C30.8782 4.16226 32.5579 4.86237 32.6257 5.95127L25.3776 6.81235C25.3073 5.71255 26.8764 4.64322 28.8785 4.40819Z" fill="#720026" style="fill:#720026;fill:color(display-p3 0.4461 0.0000 0.1487);fill-opacity:1;"/>
<path d="M32.2598 5.98148C34.3032 5.72365 35.931 4.64114 35.8921 3.54792L28.483 4.44139C28.5219 5.5346 30.2138 6.22848 32.2598 5.98148Z" fill="#720026" style="fill:#720026;fill:color(display-p3 0.4461 0.0000 0.1487);fill-opacity:1;"/>
<path d="M7.62592 13.8569C5.32665 14.4444 3.05785 13.3362 2.55841 11.3816C2.05897 9.42702 3.518 7.36615 5.81727 6.77864C8.11654 6.19112 10.3854 7.29944 10.8848 9.25402C11.3843 11.2086 9.92519 13.2693 7.62592 13.8569Z" fill="#DC4EBF" style="fill:#DC4EBF;fill:color(display-p3 0.8612 0.3063 0.7487);fill-opacity:1;"/>
<path d="M6.8082 10.0712C4.9089 10.8811 3.78183 12.2836 4.28517 13.1829L11.1593 10.2362C10.6532 9.32666 8.70473 9.25111 6.8082 10.0712Z" fill="#720026" style="fill:#720026;fill:color(display-p3 0.4461 0.0000 0.1487);fill-opacity:1;"/>
<path d="M4.69765 12.9832C2.80267 13.8029 0.836044 13.7319 0.308898 12.8387L7.1748 9.88324C7.70459 10.7866 6.59539 12.1737 4.69765 12.9832Z" fill="#720026" style="fill:#720026;fill:color(display-p3 0.4461 0.0000 0.1487);fill-opacity:1;"/>
</svg>
