<svg width="828" height="1070" viewBox="0 0 828 1070" fill="none" xmlns="http://www.w3.org/2000/svg">
  <path d="M310.712 828H0V745.084H310.712V828ZM828 828H517.288V745.084H828V828ZM517.288 82.916V331.664H724.43V248.748H620.858V165.832H828V662.168H620.858V579.252H724.43V496.336H517.288V745.084H310.712V496.336H517.288V331.664H310.712V496.336H103.57V579.252H207.142V662.168H0V165.832H207.142V248.748H103.57V331.664H310.712V82.916H517.288ZM310.712 82.916H0V0H310.712V82.916ZM828 82.916H517.288V0H828V82.916Z" fill="black"/>
  <g transform="translate(0 904) scale(0.214341)">
    <g transform="translate(-35 0)">
      <path d="M3772.41 668.443C3739.88 668.443 3716.73 661.561 3702.97 647.797C3689.2 634.033 3682.32 617.141 3682.32 597.12V568.967C3682.32 548.947 3689.2 532.054 3702.97 518.29C3716.73 504.527 3739.88 497.645 3772.41 497.645C3804.94 497.645 3828.09 504.527 3841.86 518.29C3855.62 532.054 3862.5 548.947 3862.5 568.967V597.12C3862.5 617.141 3855.62 634.033 3841.86 647.797C3828.09 661.561 3804.94 668.443 3772.41 668.443Z" fill="black"/>
      <path d="M3173.19 668.331V429.025L2960.16 13.2911H3097.17L3173.19 170.951L3232.31 305.15H3238.88L3298.94 170.951L3375.89 13.2911H3508.21L3295.18 429.025V668.331H3173.19Z" fill="black"/>
    </g>
    <path d="M2586.15 111.216V664.903H2464.15V111.216H2267.08V9.86328H2783.23V111.216H2586.15Z" fill="black"/>
    <path d="M1856.5 668.331V13.2911H1979.44V566.978H2269.42V668.331H1856.5Z" fill="black"/>
    <path d="M1264.02 668.331V576.362H1411.36V105.259H1264.02V13.2911H1680.7V105.259H1533.36V576.362H1680.7V668.331H1264.02Z" fill="black"/>
    <path d="M766.066 2.07422V410.301C766.066 434.701 766.692 456.598 767.943 475.992C769.82 495.387 773.887 511.966 780.143 525.73C787.025 538.869 797.035 549.192 810.173 556.699C823.937 564.207 842.706 567.961 866.48 567.961C890.255 567.961 908.711 564.207 921.849 556.699C935.613 549.192 945.623 538.869 951.88 525.73C958.762 511.966 962.828 495.387 964.079 475.992C965.956 456.598 966.895 434.701 966.895 410.301V2.07422H1089.83V391.532C1089.83 437.829 1087.02 478.182 1081.39 512.592C1075.76 547.002 1064.81 575.781 1048.54 598.93C1032.27 622.078 1009.44 639.596 980.033 651.483C951.254 662.744 913.403 668.375 866.48 668.375C819.558 668.375 781.394 662.744 751.989 651.483C723.21 639.596 700.687 622.078 684.421 598.93C668.154 575.781 657.206 547.002 651.575 512.592C645.944 478.182 643.129 437.829 643.129 391.532V2.07422H766.066Z" fill="black"/>
    <path d="M356.612 575.271H349.104C343.473 588.409 336.591 601.235 328.458 613.748C320.325 626.26 310.315 637.209 298.428 646.593C286.541 655.978 272.464 663.486 256.197 669.116C240.556 674.747 222.413 677.562 201.767 677.562C135.45 677.562 85.0863 648.47 50.6764 590.286C16.8921 531.477 0 449.206 0 343.473C0 232.11 20.0203 147.024 60.0609 88.2145C100.102 29.4048 161.727 0 244.936 0C277.469 0 305.935 4.37944 330.335 13.1383C355.36 21.8972 376.632 34.0971 394.15 49.738C412.293 65.3788 426.996 84.1479 438.257 106.045C450.144 127.317 459.529 150.465 466.411 175.491L353.796 207.398C349.417 193.634 344.412 180.183 338.781 167.044C333.776 153.906 326.894 142.645 318.135 133.26C310.002 123.25 299.992 115.43 288.105 109.799C276.218 103.543 261.515 100.414 243.997 100.414C203.331 100.414 174.239 116.681 156.721 149.214C139.204 181.747 130.445 226.167 130.445 282.474V387.581C130.445 415.734 132.322 441.698 136.076 465.472C140.455 488.621 147.337 508.641 156.721 525.533C166.106 542.425 178.306 555.564 193.321 564.948C208.336 573.707 227.105 578.086 249.628 578.086C284.664 578.086 311.253 567.763 329.397 547.118C347.54 525.846 356.612 498.944 356.612 466.411V412.919H237.428V323.766H466.411V666.301H356.612V575.271Z" fill="black"/>
  </g>
</svg>
