<svg width="850" height="853" viewBox="0 0 850 853" fill="none" xmlns="http://www.w3.org/2000/svg">
<path d="M467.636 85.0002C491.033 85.0002 510 66.1615 510 42.9226C510 19.6837 491.033 0.844727 467.636 0.844727C444.239 0.844727 425.271 19.6837 425.271 42.9226C425.271 66.1615 444.239 85.0002 467.636 85.0002Z" fill="#FFB290"/>
<path d="M466.537 0C490.129 0 510.89 17.3556 509.971 44.5692C483.415 32.7915 455.397 32.4512 425 42.9434C425.605 18.4664 442.945 0 466.537 0Z" fill="#D4FF8B"/>
<path d="M468.211 84.9863C491.84 84.9863 506.409 69.4417 509.402 49.6882C468.211 67.433 461.267 66.2997 425.819 49.8293C429.119 69.484 444.582 84.9863 468.211 84.9863Z" fill="#FCFFE2"/>
<path d="M488.706 55.0713C492.673 55.0713 495.889 51.8554 495.889 47.8883C495.889 43.9212 492.673 40.7051 488.706 40.7051C484.738 40.7051 481.522 43.9212 481.522 47.8883C481.522 51.8554 484.738 55.0713 488.706 55.0713Z" fill="#DD6E3E"/>
<path d="M488.104 47.2891C491.7 47.9081 493.596 49.9122 493.129 51.8724L480.107 49.6027C480.575 47.6219 484.508 46.6495 488.104 47.2891Z" fill="#720026"/>
<path d="M494.093 52.0739C497.686 52.7135 499.254 51.236 499.764 49.276L488.108 47.2852C487.597 49.2658 490.5 51.4549 494.093 52.0739Z" fill="#720026"/>
<path d="M446.866 55.0713C442.899 55.0713 439.683 51.8554 439.683 47.8883C439.683 43.9212 442.899 40.7051 446.866 40.7051C450.833 40.7051 454.049 43.9212 454.049 47.8883C454.049 51.8554 450.833 55.0713 446.866 55.0713Z" fill="#DD6E3E"/>
<path d="M447.466 47.2891C443.87 47.9081 441.974 49.9122 442.441 51.8724L455.463 49.6027C454.996 47.6219 451.062 46.6495 447.466 47.2891Z" fill="#720026"/>
<path d="M441.477 52.0739C437.884 52.7135 436.317 51.236 435.806 49.276L447.462 47.2852C447.973 49.2658 445.07 51.4549 441.477 52.0739Z" fill="#720026"/>
<path d="M552.636 85.0002C576.033 85.0002 595 66.1615 595 42.9226C595 19.6837 576.033 0.844727 552.636 0.844727C529.239 0.844727 510.271 19.6837 510.271 42.9226C510.271 66.1615 529.239 85.0002 552.636 85.0002Z" fill="#FFB290"/>
<path d="M551.537 0C575.129 0 595.89 17.3556 594.971 44.5692C568.415 32.7915 540.397 32.4512 510 42.9434C510.605 18.4664 527.945 0 551.537 0Z" fill="#D4FF8B"/>
<path d="M553.211 84.9863C576.84 84.9863 591.409 69.4417 594.402 49.6882C553.211 67.433 546.267 66.2997 510.819 49.8293C514.119 69.484 529.582 84.9863 553.211 84.9863Z" fill="#FCFFE2"/>
<path d="M573.706 55.0713C577.673 55.0713 580.889 51.8554 580.889 47.8883C580.889 43.9212 577.673 40.7051 573.706 40.7051C569.738 40.7051 566.522 43.9212 566.522 47.8883C566.522 51.8554 569.738 55.0713 573.706 55.0713Z" fill="#DD6E3E"/>
<path d="M573.104 47.2891C576.7 47.9081 578.596 49.9122 578.129 51.8724L565.107 49.6027C565.575 47.6219 569.508 46.6495 573.104 47.2891Z" fill="#720026"/>
<path d="M579.093 52.0739C582.686 52.7135 584.254 51.236 584.764 49.276L573.108 47.2852C572.597 49.2658 575.5 51.4549 579.093 52.0739Z" fill="#720026"/>
<path d="M531.866 55.0713C527.899 55.0713 524.683 51.8554 524.683 47.8883C524.683 43.9212 527.899 40.7051 531.866 40.7051C535.833 40.7051 539.049 43.9212 539.049 47.8883C539.049 51.8554 535.833 55.0713 531.866 55.0713Z" fill="#DD6E3E"/>
<path d="M532.466 47.2891C528.87 47.9081 526.974 49.9122 527.441 51.8724L540.463 49.6027C539.996 47.6219 536.062 46.6495 532.466 47.2891Z" fill="#720026"/>
<path d="M526.477 52.0739C522.884 52.7135 521.317 51.236 520.806 49.276L532.462 47.2852C532.973 49.2658 530.07 51.4549 526.477 52.0739Z" fill="#720026"/>
<path d="M807.636 85.0002C831.033 85.0002 850 66.1615 850 42.9226C850 19.6837 831.033 0.844727 807.636 0.844727C784.239 0.844727 765.271 19.6837 765.271 42.9226C765.271 66.1615 784.239 85.0002 807.636 85.0002Z" fill="#FFB290"/>
<path d="M806.537 0C830.129 0 850.89 17.3556 849.971 44.5692C823.415 32.7915 795.397 32.4512 765 42.9434C765.605 18.4664 782.945 0 806.537 0Z" fill="#D4FF8B"/>
<path d="M808.211 84.9863C831.84 84.9863 846.409 69.4417 849.402 49.6882C808.211 67.433 801.267 66.2997 765.819 49.8293C769.119 69.484 784.582 84.9863 808.211 84.9863Z" fill="#FCFFE2"/>
<path d="M828.706 55.0713C832.673 55.0713 835.889 51.8554 835.889 47.8883C835.889 43.9212 832.673 40.7051 828.706 40.7051C824.738 40.7051 821.522 43.9212 821.522 47.8883C821.522 51.8554 824.738 55.0713 828.706 55.0713Z" fill="#DD6E3E"/>
<path d="M828.104 47.2891C831.7 47.9081 833.596 49.9122 833.129 51.8724L820.107 49.6027C820.575 47.6219 824.508 46.6495 828.104 47.2891Z" fill="#720026"/>
<path d="M834.093 52.0739C837.686 52.7135 839.254 51.236 839.764 49.276L828.108 47.2852C827.597 49.2658 830.5 51.4549 834.093 52.0739Z" fill="#720026"/>
<path d="M786.866 55.0713C782.899 55.0713 779.683 51.8554 779.683 47.8883C779.683 43.9212 782.899 40.7051 786.866 40.7051C790.833 40.7051 794.049 43.9212 794.049 47.8883C794.049 51.8554 790.833 55.0713 786.866 55.0713Z" fill="#DD6E3E"/>
<path d="M787.466 47.2891C783.87 47.9081 781.974 49.9122 782.441 51.8724L795.463 49.6027C794.996 47.6219 791.062 46.6495 787.466 47.2891Z" fill="#720026"/>
<path d="M781.477 52.0739C777.884 52.7135 776.317 51.236 775.806 49.276L787.462 47.2852C787.973 49.2658 785.07 51.4549 781.477 52.0739Z" fill="#720026"/>
<path d="M297.636 85.0002C321.033 85.0002 340 66.1615 340 42.9226C340 19.6837 321.033 0.844727 297.636 0.844727C274.239 0.844727 255.271 19.6837 255.271 42.9226C255.271 66.1615 274.239 85.0002 297.636 85.0002Z" fill="#FFB290"/>
<path d="M296.537 0C320.129 0 340.89 17.3556 339.971 44.5692C313.415 32.7915 285.397 32.4512 255 42.9434C255.605 18.4664 272.945 0 296.537 0Z" fill="#D4FF8B"/>
<path d="M298.211 84.9863C321.84 84.9863 336.409 69.4417 339.402 49.6882C298.211 67.433 291.267 66.2997 255.819 49.8293C259.119 69.484 274.582 84.9863 298.211 84.9863Z" fill="#FCFFE2"/>
<path d="M318.706 55.0713C322.673 55.0713 325.889 51.8554 325.889 47.8883C325.889 43.9212 322.673 40.7051 318.706 40.7051C314.738 40.7051 311.522 43.9212 311.522 47.8883C311.522 51.8554 314.738 55.0713 318.706 55.0713Z" fill="#DD6E3E"/>
<path d="M318.104 47.2891C321.7 47.9081 323.596 49.9122 323.129 51.8724L310.107 49.6027C310.575 47.6219 314.509 46.6495 318.104 47.2891Z" fill="#720026"/>
<path d="M324.093 52.0739C327.686 52.7135 329.254 51.236 329.764 49.276L318.108 47.2852C317.597 49.2658 320.5 51.4549 324.093 52.0739Z" fill="#720026"/>
<path d="M276.866 55.0713C272.899 55.0713 269.683 51.8554 269.683 47.8883C269.683 43.9212 272.899 40.7051 276.866 40.7051C280.833 40.7051 284.049 43.9212 284.049 47.8883C284.049 51.8554 280.833 55.0713 276.866 55.0713Z" fill="#DD6E3E"/>
<path d="M277.466 47.2891C273.87 47.9081 271.974 49.9122 272.441 51.8724L285.463 49.6027C284.996 47.6219 281.062 46.6495 277.466 47.2891Z" fill="#720026"/>
<path d="M271.477 52.0739C267.884 52.7135 266.317 51.236 265.806 49.276L277.462 47.2852C277.973 49.2658 275.07 51.4549 271.477 52.0739Z" fill="#720026"/>
<path d="M382.636 170C406.033 170 425 151.161 425 127.923C425 104.684 406.033 85.8447 382.636 85.8447C359.239 85.8447 340.271 104.684 340.271 127.923C340.271 151.161 359.239 170 382.636 170Z" fill="#FFB290"/>
<path d="M381.537 85C405.129 85 425.89 102.356 424.971 129.569C398.415 117.792 370.397 117.451 340 127.943C340.605 103.466 357.945 85 381.537 85Z" fill="#D4FF8B"/>
<path d="M383.211 169.986C406.84 169.986 421.409 154.442 424.402 134.688C383.211 152.433 376.267 151.3 340.819 134.829C344.119 154.484 359.582 169.986 383.211 169.986Z" fill="#FCFFE2"/>
<path d="M403.706 140.071C407.673 140.071 410.889 136.855 410.889 132.888C410.889 128.921 407.673 125.705 403.706 125.705C399.738 125.705 396.522 128.921 396.522 132.888C396.522 136.855 399.738 140.071 403.706 140.071Z" fill="#DD6E3E"/>
<path d="M403.104 132.289C406.7 132.908 408.596 134.912 408.129 136.872L395.107 134.603C395.575 132.622 399.508 131.649 403.104 132.289Z" fill="#720026"/>
<path d="M409.093 137.074C412.686 137.713 414.254 136.236 414.764 134.276L403.108 132.285C402.597 134.266 405.5 136.455 409.093 137.074Z" fill="#720026"/>
<path d="M361.866 140.071C357.899 140.071 354.683 136.855 354.683 132.888C354.683 128.921 357.899 125.705 361.866 125.705C365.833 125.705 369.049 128.921 369.049 132.888C369.049 136.855 365.833 140.071 361.866 140.071Z" fill="#DD6E3E"/>
<path d="M362.466 132.289C358.87 132.908 356.974 134.912 357.441 136.872L370.463 134.603C369.996 132.622 366.062 131.649 362.466 132.289Z" fill="#720026"/>
<path d="M356.477 137.074C352.884 137.713 351.317 136.236 350.806 134.276L362.462 132.285C362.973 134.266 360.07 136.455 356.477 137.074Z" fill="#720026"/>
<path d="M722.636 170C746.033 170 765 151.161 765 127.923C765 104.684 746.033 85.8447 722.636 85.8447C699.239 85.8447 680.271 104.684 680.271 127.923C680.271 151.161 699.239 170 722.636 170Z" fill="#FFB290"/>
<path d="M721.537 85C745.129 85 765.89 102.356 764.971 129.569C738.415 117.792 710.397 117.451 680 127.943C680.605 103.466 697.945 85 721.537 85Z" fill="#D4FF8B"/>
<path d="M723.211 169.986C746.84 169.986 761.409 154.442 764.402 134.688C723.211 152.433 716.267 151.3 680.819 134.829C684.119 154.484 699.582 169.986 723.211 169.986Z" fill="#FCFFE2"/>
<path d="M743.706 140.071C747.673 140.071 750.889 136.855 750.889 132.888C750.889 128.921 747.673 125.705 743.706 125.705C739.738 125.705 736.522 128.921 736.522 132.888C736.522 136.855 739.738 140.071 743.706 140.071Z" fill="#DD6E3E"/>
<path d="M743.104 132.289C746.7 132.908 748.596 134.912 748.129 136.872L735.107 134.603C735.575 132.622 739.508 131.649 743.104 132.289Z" fill="#720026"/>
<path d="M749.093 137.074C752.686 137.713 754.254 136.236 754.764 134.276L743.108 132.285C742.597 134.266 745.5 136.455 749.093 137.074Z" fill="#720026"/>
<path d="M701.866 140.071C697.899 140.071 694.683 136.855 694.683 132.888C694.683 128.921 697.899 125.705 701.866 125.705C705.833 125.705 709.049 128.921 709.049 132.888C709.049 136.855 705.833 140.071 701.866 140.071Z" fill="#DD6E3E"/>
<path d="M702.466 132.289C698.87 132.908 696.974 134.912 697.441 136.872L710.463 134.603C709.996 132.622 706.062 131.649 702.466 132.289Z" fill="#720026"/>
<path d="M696.477 137.074C692.884 137.713 691.317 136.236 690.806 134.276L702.462 132.285C702.973 134.266 700.07 136.455 696.477 137.074Z" fill="#720026"/>
<path d="M297.636 85.0002C321.033 85.0002 340 66.1615 340 42.9226C340 19.6837 321.033 0.844727 297.636 0.844727C274.239 0.844727 255.271 19.6837 255.271 42.9226C255.271 66.1615 274.239 85.0002 297.636 85.0002Z" fill="#FFB290"/>
<path d="M296.537 0C320.129 0 340.89 17.3556 339.971 44.5692C313.415 32.7915 285.397 32.4512 255 42.9434C255.605 18.4664 272.945 0 296.537 0Z" fill="#D4FF8B"/>
<path d="M298.211 84.9863C321.84 84.9863 336.409 69.4417 339.402 49.6882C298.211 67.433 291.267 66.2997 255.819 49.8293C259.119 69.484 274.582 84.9863 298.211 84.9863Z" fill="#FCFFE2"/>
<path d="M318.706 55.0713C322.673 55.0713 325.889 51.8554 325.889 47.8883C325.889 43.9212 322.673 40.7051 318.706 40.7051C314.738 40.7051 311.522 43.9212 311.522 47.8883C311.522 51.8554 314.738 55.0713 318.706 55.0713Z" fill="#DD6E3E"/>
<path d="M318.104 47.2891C321.7 47.9081 323.596 49.9122 323.129 51.8724L310.107 49.6027C310.575 47.6219 314.509 46.6495 318.104 47.2891Z" fill="#720026"/>
<path d="M324.093 52.0739C327.686 52.7135 329.254 51.236 329.764 49.276L318.108 47.2852C317.597 49.2658 320.5 51.4549 324.093 52.0739Z" fill="#720026"/>
<path d="M276.866 55.0713C272.899 55.0713 269.683 51.8554 269.683 47.8883C269.683 43.9212 272.899 40.7051 276.866 40.7051C280.833 40.7051 284.049 43.9212 284.049 47.8883C284.049 51.8554 280.833 55.0713 276.866 55.0713Z" fill="#DD6E3E"/>
<path d="M277.466 47.2891C273.87 47.9081 271.974 49.9122 272.441 51.8724L285.463 49.6027C284.996 47.6219 281.062 46.6495 277.466 47.2891Z" fill="#720026"/>
<path d="M271.477 52.0739C267.884 52.7135 266.317 51.236 265.806 49.276L277.462 47.2852C277.973 49.2658 275.07 51.4549 271.477 52.0739Z" fill="#720026"/>
<path d="M382.636 170C406.033 170 425 151.161 425 127.923C425 104.684 406.033 85.8447 382.636 85.8447C359.239 85.8447 340.271 104.684 340.271 127.923C340.271 151.161 359.239 170 382.636 170Z" fill="#FFB290"/>
<path d="M381.537 85C405.129 85 425.89 102.356 424.971 129.569C398.415 117.792 370.397 117.451 340 127.943C340.605 103.466 357.945 85 381.537 85Z" fill="#D4FF8B"/>
<path d="M383.211 169.986C406.84 169.986 421.409 154.442 424.402 134.688C383.211 152.433 376.267 151.3 340.819 134.829C344.119 154.484 359.582 169.986 383.211 169.986Z" fill="#FCFFE2"/>
<path d="M403.706 140.071C407.673 140.071 410.889 136.855 410.889 132.888C410.889 128.921 407.673 125.705 403.706 125.705C399.738 125.705 396.522 128.921 396.522 132.888C396.522 136.855 399.738 140.071 403.706 140.071Z" fill="#DD6E3E"/>
<path d="M403.104 132.289C406.7 132.908 408.596 134.912 408.129 136.872L395.107 134.603C395.575 132.622 399.508 131.649 403.104 132.289Z" fill="#720026"/>
<path d="M409.093 137.074C412.686 137.713 414.254 136.236 414.764 134.276L403.108 132.285C402.597 134.266 405.5 136.455 409.093 137.074Z" fill="#720026"/>
<path d="M361.866 140.071C357.899 140.071 354.683 136.855 354.683 132.888C354.683 128.921 357.899 125.705 361.866 125.705C365.833 125.705 369.049 128.921 369.049 132.888C369.049 136.855 365.833 140.071 361.866 140.071Z" fill="#DD6E3E"/>
<path d="M362.466 132.289C358.87 132.908 356.974 134.912 357.441 136.872L370.463 134.603C369.996 132.622 366.062 131.649 362.466 132.289Z" fill="#720026"/>
<path d="M356.477 137.074C352.884 137.713 351.317 136.236 350.806 134.276L362.462 132.285C362.973 134.266 360.07 136.455 356.477 137.074Z" fill="#720026"/>
<path d="M212.636 424C236.033 424 255 405.161 255 381.923C255 358.684 236.033 339.845 212.636 339.845C189.239 339.845 170.271 358.684 170.271 381.923C170.271 405.161 189.239 424 212.636 424Z" fill="#FFB290"/>
<path d="M211.537 339C235.129 339 255.89 356.356 254.971 383.569C228.415 371.792 200.397 371.451 170 381.943C170.605 357.466 187.945 339 211.537 339Z" fill="#D4FF8B"/>
<path d="M213.211 423.986C236.84 423.986 251.409 408.442 254.402 388.688C213.211 406.433 206.267 405.3 170.819 388.829C174.119 408.484 189.582 423.986 213.211 423.986Z" fill="#FCFFE2"/>
<path d="M233.706 394.071C237.673 394.071 240.889 390.855 240.889 386.888C240.889 382.921 237.673 379.705 233.706 379.705C229.738 379.705 226.522 382.921 226.522 386.888C226.522 390.855 229.738 394.071 233.706 394.071Z" fill="#DD6E3E"/>
<path d="M233.104 386.289C236.7 386.908 238.596 388.912 238.129 390.872L225.107 388.603C225.575 386.622 229.509 385.649 233.104 386.289Z" fill="#720026"/>
<path d="M239.093 391.074C242.686 391.713 244.254 390.236 244.764 388.276L233.108 386.285C232.597 388.266 235.5 390.455 239.093 391.074Z" fill="#720026"/>
<path d="M191.866 394.071C187.899 394.071 184.683 390.855 184.683 386.888C184.683 382.921 187.899 379.705 191.866 379.705C195.833 379.705 199.049 382.921 199.049 386.888C199.049 390.855 195.833 394.071 191.866 394.071Z" fill="#DD6E3E"/>
<path d="M192.466 386.289C188.87 386.908 186.974 388.912 187.441 390.872L200.463 388.603C199.996 386.622 196.062 385.649 192.466 386.289Z" fill="#720026"/>
<path d="M186.477 391.074C182.884 391.713 181.317 390.236 180.806 388.276L192.462 386.285C192.973 388.266 190.07 390.455 186.477 391.074Z" fill="#720026"/>
<path d="M42.6357 424C66.0328 424 84.9999 405.161 84.9999 381.923C84.9999 358.684 66.0328 339.845 42.6357 339.845C19.2386 339.845 0.271484 358.684 0.271484 381.923C0.271484 405.161 19.2386 424 42.6357 424Z" fill="#FFB290"/>
<path d="M41.5369 339C65.1288 339 85.8902 356.356 84.9706 383.569C58.415 371.792 30.3971 371.451 0 381.943C0.605278 357.466 17.945 339 41.5369 339Z" fill="#D4FF8B"/>
<path d="M43.2111 423.986C66.8401 423.986 81.4089 408.442 84.4019 388.688C43.2111 406.433 36.2669 405.3 0.818848 388.829C4.11884 408.484 19.5821 423.986 43.2111 423.986Z" fill="#FCFFE2"/>
<path d="M63.7056 394.071C67.6727 394.071 70.8887 390.855 70.8887 386.888C70.8887 382.921 67.6727 379.705 63.7056 379.705C59.7384 379.705 56.5225 382.921 56.5225 386.888C56.5225 390.855 59.7384 394.071 63.7056 394.071Z" fill="#DD6E3E"/>
<path d="M63.1043 386.289C66.7004 386.908 68.5965 388.912 68.1295 390.872L55.1074 388.603C55.5748 386.622 59.5085 385.649 63.1043 386.289Z" fill="#720026"/>
<path d="M69.0933 391.074C72.6862 391.713 74.2535 390.236 74.7639 388.276L63.1077 386.285C62.5973 388.266 65.5 390.455 69.0933 391.074Z" fill="#720026"/>
<path d="M21.866 394.071C17.8989 394.071 14.6829 390.855 14.6829 386.888C14.6829 382.921 17.8989 379.705 21.866 379.705C25.8331 379.705 29.0491 382.921 29.0491 386.888C29.0491 390.855 25.8331 394.071 21.866 394.071Z" fill="#DD6E3E"/>
<path d="M22.4664 386.289C18.8703 386.908 16.9742 388.912 17.4412 390.872L30.4632 388.603C29.9959 386.622 26.0621 385.649 22.4664 386.289Z" fill="#720026"/>
<path d="M16.4768 391.074C12.8839 391.713 11.3165 390.236 10.8062 388.276L22.4624 386.285C22.9728 388.266 20.07 390.455 16.4768 391.074Z" fill="#720026"/>
<path d="M127.636 509C151.033 509 170 490.161 170 466.923C170 443.684 151.033 424.845 127.636 424.845C104.239 424.845 85.2715 443.684 85.2715 466.923C85.2715 490.161 104.239 509 127.636 509Z" fill="#FFB290"/>
<path d="M126.537 424C150.129 424 170.89 441.356 169.971 468.569C143.415 456.792 115.397 456.451 85 466.943C85.6053 442.466 102.945 424 126.537 424Z" fill="#D4FF8B"/>
<path d="M128.211 508.986C151.84 508.986 166.409 493.442 169.402 473.688C128.211 491.433 121.267 490.3 85.8188 473.829C89.1188 493.484 104.582 508.986 128.211 508.986Z" fill="#FCFFE2"/>
<path d="M148.706 479.071C152.673 479.071 155.889 475.855 155.889 471.888C155.889 467.921 152.673 464.705 148.706 464.705C144.738 464.705 141.522 467.921 141.522 471.888C141.522 475.855 144.738 479.071 148.706 479.071Z" fill="#DD6E3E"/>
<path d="M148.104 471.289C151.7 471.908 153.596 473.912 153.129 475.872L140.107 473.603C140.575 471.622 144.509 470.649 148.104 471.289Z" fill="#720026"/>
<path d="M154.093 476.074C157.686 476.713 159.254 475.236 159.764 473.276L148.108 471.285C147.597 473.266 150.5 475.455 154.093 476.074Z" fill="#720026"/>
<path d="M106.866 479.071C102.899 479.071 99.6829 475.855 99.6829 471.888C99.6829 467.921 102.899 464.705 106.866 464.705C110.833 464.705 114.049 467.921 114.049 471.888C114.049 475.855 110.833 479.071 106.866 479.071Z" fill="#DD6E3E"/>
<path d="M107.466 471.289C103.87 471.908 101.974 473.912 102.441 475.872L115.463 473.603C114.996 471.622 111.062 470.649 107.466 471.289Z" fill="#720026"/>
<path d="M101.477 476.074C97.8839 476.713 96.3165 475.236 95.8062 473.276L107.462 471.285C107.973 473.266 105.07 475.455 101.477 476.074Z" fill="#720026"/>
<path d="M42.6357 424C66.0328 424 84.9999 405.161 84.9999 381.923C84.9999 358.684 66.0328 339.845 42.6357 339.845C19.2386 339.845 0.271484 358.684 0.271484 381.923C0.271484 405.161 19.2386 424 42.6357 424Z" fill="#FFB290"/>
<path d="M41.5369 339C65.1288 339 85.8902 356.356 84.9706 383.569C58.415 371.792 30.3971 371.451 0 381.943C0.605278 357.466 17.945 339 41.5369 339Z" fill="#D4FF8B"/>
<path d="M43.2111 423.986C66.8401 423.986 81.4089 408.442 84.4019 388.688C43.2111 406.433 36.2669 405.3 0.818848 388.829C4.11884 408.484 19.5821 423.986 43.2111 423.986Z" fill="#FCFFE2"/>
<path d="M63.7056 394.071C67.6727 394.071 70.8887 390.855 70.8887 386.888C70.8887 382.921 67.6727 379.705 63.7056 379.705C59.7384 379.705 56.5225 382.921 56.5225 386.888C56.5225 390.855 59.7384 394.071 63.7056 394.071Z" fill="#DD6E3E"/>
<path d="M63.1043 386.289C66.7004 386.908 68.5965 388.912 68.1295 390.872L55.1074 388.603C55.5748 386.622 59.5085 385.649 63.1043 386.289Z" fill="#720026"/>
<path d="M69.0933 391.074C72.6862 391.713 74.2535 390.236 74.7639 388.276L63.1077 386.285C62.5973 388.266 65.5 390.455 69.0933 391.074Z" fill="#720026"/>
<path d="M21.866 394.071C17.8989 394.071 14.6829 390.855 14.6829 386.888C14.6829 382.921 17.8989 379.705 21.866 379.705C25.8331 379.705 29.0491 382.921 29.0491 386.888C29.0491 390.855 25.8331 394.071 21.866 394.071Z" fill="#DD6E3E"/>
<path d="M22.4664 386.289C18.8703 386.908 16.9742 388.912 17.4412 390.872L30.4632 388.603C29.9959 386.622 26.0621 385.649 22.4664 386.289Z" fill="#720026"/>
<path d="M16.4768 391.074C12.8839 391.713 11.3165 390.236 10.8062 388.276L22.4624 386.285C22.9728 388.266 20.07 390.455 16.4768 391.074Z" fill="#720026"/>
<path d="M127.636 509C151.033 509 170 490.161 170 466.923C170 443.684 151.033 424.845 127.636 424.845C104.239 424.845 85.2715 443.684 85.2715 466.923C85.2715 490.161 104.239 509 127.636 509Z" fill="#FFB290"/>
<path d="M126.537 424C150.129 424 170.89 441.356 169.971 468.569C143.415 456.792 115.397 456.451 85 466.943C85.6053 442.466 102.945 424 126.537 424Z" fill="#D4FF8B"/>
<path d="M128.211 508.986C151.84 508.986 166.409 493.442 169.402 473.688C128.211 491.433 121.267 490.3 85.8188 473.829C89.1188 493.484 104.582 508.986 128.211 508.986Z" fill="#FCFFE2"/>
<path d="M148.706 479.071C152.673 479.071 155.889 475.855 155.889 471.888C155.889 467.921 152.673 464.705 148.706 464.705C144.738 464.705 141.522 467.921 141.522 471.888C141.522 475.855 144.738 479.071 148.706 479.071Z" fill="#DD6E3E"/>
<path d="M148.104 471.289C151.7 471.908 153.596 473.912 153.129 475.872L140.107 473.603C140.575 471.622 144.509 470.649 148.104 471.289Z" fill="#720026"/>
<path d="M154.093 476.074C157.686 476.713 159.254 475.236 159.764 473.276L148.108 471.285C147.597 473.266 150.5 475.455 154.093 476.074Z" fill="#720026"/>
<path d="M106.866 479.071C102.899 479.071 99.6829 475.855 99.6829 471.888C99.6829 467.921 102.899 464.705 106.866 464.705C110.833 464.705 114.049 467.921 114.049 471.888C114.049 475.855 110.833 479.071 106.866 479.071Z" fill="#DD6E3E"/>
<path d="M107.466 471.289C103.87 471.908 101.974 473.912 102.441 475.872L115.463 473.603C114.996 471.622 111.062 470.649 107.466 471.289Z" fill="#720026"/>
<path d="M101.477 476.074C97.8839 476.713 96.3165 475.236 95.8062 473.276L107.462 471.285C107.973 473.266 105.07 475.455 101.477 476.074Z" fill="#720026"/>
<path d="M42.6357 594C66.0328 594 84.9999 575.161 84.9999 551.923C84.9999 528.684 66.0328 509.845 42.6357 509.845C19.2386 509.845 0.271484 528.684 0.271484 551.923C0.271484 575.161 19.2386 594 42.6357 594Z" fill="#FFB290"/>
<path d="M41.5369 509C65.1288 509 85.8902 526.356 84.9706 553.569C58.415 541.792 30.3971 541.451 0 551.943C0.605278 527.466 17.945 509 41.5369 509Z" fill="#D4FF8B"/>
<path d="M43.2111 593.986C66.8401 593.986 81.4089 578.442 84.4019 558.688C43.2111 576.433 36.2669 575.3 0.818848 558.829C4.11884 578.484 19.5821 593.986 43.2111 593.986Z" fill="#FCFFE2"/>
<path d="M63.7056 564.071C67.6727 564.071 70.8887 560.855 70.8887 556.888C70.8887 552.921 67.6727 549.705 63.7056 549.705C59.7384 549.705 56.5225 552.921 56.5225 556.888C56.5225 560.855 59.7384 564.071 63.7056 564.071Z" fill="#DD6E3E"/>
<path d="M63.1043 556.289C66.7004 556.908 68.5965 558.912 68.1295 560.872L55.1074 558.603C55.5748 556.622 59.5085 555.649 63.1043 556.289Z" fill="#720026"/>
<path d="M69.0933 561.074C72.6862 561.713 74.2535 560.236 74.7639 558.276L63.1077 556.285C62.5973 558.266 65.5 560.455 69.0933 561.074Z" fill="#720026"/>
<path d="M21.866 564.071C17.8989 564.071 14.6829 560.855 14.6829 556.888C14.6829 552.921 17.8989 549.705 21.866 549.705C25.8331 549.705 29.0491 552.921 29.0491 556.888C29.0491 560.855 25.8331 564.071 21.866 564.071Z" fill="#DD6E3E"/>
<path d="M22.4664 556.289C18.8703 556.908 16.9742 558.912 17.4412 560.872L30.4632 558.603C29.9959 556.622 26.0621 555.649 22.4664 556.289Z" fill="#720026"/>
<path d="M16.4768 561.074C12.8839 561.713 11.3165 560.236 10.8062 558.276L22.4624 556.285C22.9728 558.266 20.07 560.455 16.4768 561.074Z" fill="#720026"/>
<path d="M127.636 679C151.033 679 170 660.161 170 636.923C170 613.684 151.033 594.845 127.636 594.845C104.239 594.845 85.2715 613.684 85.2715 636.923C85.2715 660.161 104.239 679 127.636 679Z" fill="#FFB290"/>
<path d="M126.537 594C150.129 594 170.89 611.356 169.971 638.569C143.415 626.792 115.397 626.451 85 636.943C85.6053 612.466 102.945 594 126.537 594Z" fill="#D4FF8B"/>
<path d="M128.211 678.986C151.84 678.986 166.409 663.442 169.402 643.688C128.211 661.433 121.267 660.3 85.8188 643.829C89.1188 663.484 104.582 678.986 128.211 678.986Z" fill="#FCFFE2"/>
<path d="M148.706 649.071C152.673 649.071 155.889 645.855 155.889 641.888C155.889 637.921 152.673 634.705 148.706 634.705C144.738 634.705 141.522 637.921 141.522 641.888C141.522 645.855 144.738 649.071 148.706 649.071Z" fill="#DD6E3E"/>
<path d="M148.104 641.289C151.7 641.908 153.596 643.912 153.129 645.872L140.107 643.603C140.575 641.622 144.509 640.649 148.104 641.289Z" fill="#720026"/>
<path d="M154.093 646.074C157.686 646.713 159.254 645.236 159.764 643.276L148.108 641.285C147.597 643.266 150.5 645.455 154.093 646.074Z" fill="#720026"/>
<path d="M106.866 649.071C102.899 649.071 99.6829 645.855 99.6829 641.888C99.6829 637.921 102.899 634.705 106.866 634.705C110.833 634.705 114.049 637.921 114.049 641.888C114.049 645.855 110.833 649.071 106.866 649.071Z" fill="#DD6E3E"/>
<path d="M107.466 641.289C103.87 641.908 101.974 643.912 102.441 645.872L115.463 643.603C114.996 641.622 111.062 640.649 107.466 641.289Z" fill="#720026"/>
<path d="M101.477 646.074C97.8839 646.713 96.3165 645.236 95.8062 643.276L107.462 641.285C107.973 643.266 105.07 645.455 101.477 646.074Z" fill="#720026"/>
<path d="M127.636 679C151.033 679 170 660.161 170 636.923C170 613.684 151.033 594.845 127.636 594.845C104.239 594.845 85.2715 613.684 85.2715 636.923C85.2715 660.161 104.239 679 127.636 679Z" fill="#FFB290"/>
<path d="M126.537 594C150.129 594 170.89 611.356 169.971 638.569C143.415 626.792 115.397 626.451 85 636.943C85.6053 612.466 102.945 594 126.537 594Z" fill="#D4FF8B"/>
<path d="M128.211 678.986C151.84 678.986 166.409 663.442 169.402 643.688C128.211 661.433 121.267 660.3 85.8188 643.829C89.1188 663.484 104.582 678.986 128.211 678.986Z" fill="#FCFFE2"/>
<path d="M148.706 649.071C152.673 649.071 155.889 645.855 155.889 641.888C155.889 637.921 152.673 634.705 148.706 634.705C144.738 634.705 141.522 637.921 141.522 641.888C141.522 645.855 144.738 649.071 148.706 649.071Z" fill="#DD6E3E"/>
<path d="M148.104 641.289C151.7 641.908 153.596 643.912 153.129 645.872L140.107 643.603C140.575 641.622 144.509 640.649 148.104 641.289Z" fill="#720026"/>
<path d="M154.093 646.074C157.686 646.713 159.254 645.236 159.764 643.276L148.108 641.285C147.597 643.266 150.5 645.455 154.093 646.074Z" fill="#720026"/>
<path d="M106.866 649.071C102.899 649.071 99.6829 645.855 99.6829 641.888C99.6829 637.921 102.899 634.705 106.866 634.705C110.833 634.705 114.049 637.921 114.049 641.888C114.049 645.855 110.833 649.071 106.866 649.071Z" fill="#DD6E3E"/>
<path d="M107.466 641.289C103.87 641.908 101.974 643.912 102.441 645.872L115.463 643.603C114.996 641.622 111.062 640.649 107.466 641.289Z" fill="#720026"/>
<path d="M101.477 646.074C97.8839 646.713 96.3165 645.236 95.8062 643.276L107.462 641.285C107.973 643.266 105.07 645.455 101.477 646.074Z" fill="#720026"/>
<path d="M212.636 340C236.033 340 255 321.161 255 297.923C255 274.684 236.033 255.845 212.636 255.845C189.239 255.845 170.271 274.684 170.271 297.923C170.271 321.161 189.239 340 212.636 340Z" fill="#FFB290"/>
<path d="M211.537 255C235.129 255 255.89 272.356 254.971 299.569C228.415 287.792 200.397 287.451 170 297.943C170.605 273.466 187.945 255 211.537 255Z" fill="#D4FF8B"/>
<path d="M213.211 339.986C236.84 339.986 251.409 324.442 254.402 304.688C213.211 322.433 206.267 321.3 170.819 304.829C174.119 324.484 189.582 339.986 213.211 339.986Z" fill="#FCFFE2"/>
<path d="M233.706 310.071C237.673 310.071 240.889 306.855 240.889 302.888C240.889 298.921 237.673 295.705 233.706 295.705C229.738 295.705 226.522 298.921 226.522 302.888C226.522 306.855 229.738 310.071 233.706 310.071Z" fill="#DD6E3E"/>
<path d="M233.104 302.289C236.7 302.908 238.596 304.912 238.129 306.872L225.107 304.603C225.575 302.622 229.509 301.649 233.104 302.289Z" fill="#720026"/>
<path d="M239.093 307.074C242.686 307.713 244.254 306.236 244.764 304.276L233.108 302.285C232.597 304.266 235.5 306.455 239.093 307.074Z" fill="#720026"/>
<path d="M191.866 310.071C187.899 310.071 184.683 306.855 184.683 302.888C184.683 298.921 187.899 295.705 191.866 295.705C195.833 295.705 199.049 298.921 199.049 302.888C199.049 306.855 195.833 310.071 191.866 310.071Z" fill="#DD6E3E"/>
<path d="M192.466 302.289C188.87 302.908 186.974 304.912 187.441 306.872L200.463 304.603C199.996 302.622 196.062 301.649 192.466 302.289Z" fill="#720026"/>
<path d="M186.477 307.074C182.884 307.713 181.317 306.236 180.806 304.276L192.462 302.285C192.973 304.266 190.07 306.455 186.477 307.074Z" fill="#720026"/>
<path d="M722.636 429C746.033 429 765 410.161 765 386.923C765 363.684 746.033 344.845 722.636 344.845C699.239 344.845 680.271 363.684 680.271 386.923C680.271 410.161 699.239 429 722.636 429Z" fill="#FFB290"/>
<path d="M721.537 344C745.129 344 765.89 361.356 764.971 388.569C738.415 376.792 710.397 376.451 680 386.943C680.605 362.466 697.945 344 721.537 344Z" fill="#D4FF8B"/>
<path d="M723.211 428.986C746.84 428.986 761.409 413.442 764.402 393.688C723.211 411.433 716.267 410.3 680.819 393.829C684.119 413.484 699.582 428.986 723.211 428.986Z" fill="#FCFFE2"/>
<path d="M743.706 399.071C747.673 399.071 750.889 395.855 750.889 391.888C750.889 387.921 747.673 384.705 743.706 384.705C739.738 384.705 736.522 387.921 736.522 391.888C736.522 395.855 739.738 399.071 743.706 399.071Z" fill="#DD6E3E"/>
<path d="M743.104 391.289C746.7 391.908 748.596 393.912 748.129 395.872L735.107 393.603C735.575 391.622 739.508 390.649 743.104 391.289Z" fill="#720026"/>
<path d="M749.093 396.074C752.686 396.713 754.254 395.236 754.764 393.276L743.108 391.285C742.597 393.266 745.5 395.455 749.093 396.074Z" fill="#720026"/>
<path d="M701.866 399.071C697.899 399.071 694.683 395.855 694.683 391.888C694.683 387.921 697.899 384.705 701.866 384.705C705.833 384.705 709.049 387.921 709.049 391.888C709.049 395.855 705.833 399.071 701.866 399.071Z" fill="#DD6E3E"/>
<path d="M702.466 391.289C698.87 391.908 696.974 393.912 697.441 395.872L710.463 393.603C709.996 391.622 706.062 390.649 702.466 391.289Z" fill="#720026"/>
<path d="M696.477 396.074C692.884 396.713 691.317 395.236 690.806 393.276L702.462 391.285C702.973 393.266 700.07 395.455 696.477 396.074Z" fill="#720026"/>
<path d="M551.636 513C575.033 513 594 494.161 594 470.923C594 447.684 575.033 428.845 551.636 428.845C528.239 428.845 509.271 447.684 509.271 470.923C509.271 494.161 528.239 513 551.636 513Z" fill="#FFB290"/>
<path d="M550.537 428C574.129 428 594.89 445.356 593.971 472.569C567.415 460.792 539.397 460.451 509 470.943C509.605 446.466 526.945 428 550.537 428Z" fill="#D4FF8B"/>
<path d="M552.211 512.986C575.84 512.986 590.409 497.442 593.402 477.688C552.211 495.433 545.267 494.3 509.819 477.829C513.119 497.484 528.582 512.986 552.211 512.986Z" fill="#FCFFE2"/>
<path d="M572.706 483.071C576.673 483.071 579.889 479.855 579.889 475.888C579.889 471.921 576.673 468.705 572.706 468.705C568.738 468.705 565.522 471.921 565.522 475.888C565.522 479.855 568.738 483.071 572.706 483.071Z" fill="#DD6E3E"/>
<path d="M572.104 475.289C575.7 475.908 577.596 477.912 577.129 479.872L564.107 477.603C564.575 475.622 568.508 474.649 572.104 475.289Z" fill="#720026"/>
<path d="M578.093 480.074C581.686 480.713 583.254 479.236 583.764 477.276L572.108 475.285C571.597 477.266 574.5 479.455 578.093 480.074Z" fill="#720026"/>
<path d="M530.866 483.071C526.899 483.071 523.683 479.855 523.683 475.888C523.683 471.921 526.899 468.705 530.866 468.705C534.833 468.705 538.049 471.921 538.049 475.888C538.049 479.855 534.833 483.071 530.866 483.071Z" fill="#DD6E3E"/>
<path d="M531.466 475.289C527.87 475.908 525.974 477.912 526.441 479.872L539.463 477.603C538.996 475.622 535.062 474.649 531.466 475.289Z" fill="#720026"/>
<path d="M525.477 480.074C521.884 480.713 520.317 479.236 519.806 477.276L531.462 475.285C531.973 477.266 529.07 479.455 525.477 480.074Z" fill="#720026"/>
<path d="M637.636 513C661.033 513 680 494.161 680 470.923C680 447.684 661.033 428.845 637.636 428.845C614.239 428.845 595.271 447.684 595.271 470.923C595.271 494.161 614.239 513 637.636 513Z" fill="#FFB290"/>
<path d="M636.537 428C660.129 428 680.89 445.356 679.971 472.569C653.415 460.792 625.397 460.451 595 470.943C595.605 446.466 612.945 428 636.537 428Z" fill="#D4FF8B"/>
<path d="M638.211 512.986C661.84 512.986 676.409 497.442 679.402 477.688C638.211 495.433 631.267 494.3 595.819 477.829C599.119 497.484 614.582 512.986 638.211 512.986Z" fill="#FCFFE2"/>
<path d="M658.706 483.071C662.673 483.071 665.889 479.855 665.889 475.888C665.889 471.921 662.673 468.705 658.706 468.705C654.738 468.705 651.522 471.921 651.522 475.888C651.522 479.855 654.738 483.071 658.706 483.071Z" fill="#DD6E3E"/>
<path d="M658.104 475.289C661.7 475.908 663.596 477.912 663.129 479.872L650.107 477.603C650.575 475.622 654.508 474.649 658.104 475.289Z" fill="#720026"/>
<path d="M664.093 480.074C667.686 480.713 669.254 479.236 669.764 477.276L658.108 475.285C657.597 477.266 660.5 479.455 664.093 480.074Z" fill="#720026"/>
<path d="M616.866 483.071C612.899 483.071 609.683 479.855 609.683 475.888C609.683 471.921 612.899 468.705 616.866 468.705C620.833 468.705 624.049 471.921 624.049 475.888C624.049 479.855 620.833 483.071 616.866 483.071Z" fill="#DD6E3E"/>
<path d="M617.466 475.289C613.87 475.908 611.974 477.912 612.441 479.872L625.463 477.603C624.996 475.622 621.062 474.649 617.466 475.289Z" fill="#720026"/>
<path d="M611.477 480.074C607.884 480.713 606.317 479.236 605.806 477.276L617.462 475.285C617.973 477.266 615.07 479.455 611.477 480.074Z" fill="#720026"/>
<path d="M807.636 514C831.033 514 850 495.161 850 471.923C850 448.684 831.033 429.845 807.636 429.845C784.239 429.845 765.271 448.684 765.271 471.923C765.271 495.161 784.239 514 807.636 514Z" fill="#FFB290"/>
<path d="M806.537 429C830.129 429 850.89 446.356 849.971 473.569C823.415 461.792 795.397 461.451 765 471.943C765.605 447.466 782.945 429 806.537 429Z" fill="#D4FF8B"/>
<path d="M808.211 513.986C831.84 513.986 846.409 498.442 849.402 478.688C808.211 496.433 801.267 495.3 765.819 478.829C769.119 498.484 784.582 513.986 808.211 513.986Z" fill="#FCFFE2"/>
<path d="M828.706 484.071C832.673 484.071 835.889 480.855 835.889 476.888C835.889 472.921 832.673 469.705 828.706 469.705C824.738 469.705 821.522 472.921 821.522 476.888C821.522 480.855 824.738 484.071 828.706 484.071Z" fill="#DD6E3E"/>
<path d="M828.104 476.289C831.7 476.908 833.596 478.912 833.129 480.872L820.107 478.603C820.575 476.622 824.508 475.649 828.104 476.289Z" fill="#720026"/>
<path d="M834.093 481.074C837.686 481.713 839.254 480.236 839.764 478.276L828.108 476.285C827.597 478.266 830.5 480.455 834.093 481.074Z" fill="#720026"/>
<path d="M786.866 484.071C782.899 484.071 779.683 480.855 779.683 476.888C779.683 472.921 782.899 469.705 786.866 469.705C790.833 469.705 794.049 472.921 794.049 476.888C794.049 480.855 790.833 484.071 786.866 484.071Z" fill="#DD6E3E"/>
<path d="M787.466 476.289C783.87 476.908 781.974 478.912 782.441 480.872L795.463 478.603C794.996 476.622 791.062 475.649 787.466 476.289Z" fill="#720026"/>
<path d="M781.477 481.074C777.884 481.713 776.317 480.236 775.806 478.276L787.462 476.285C787.973 478.266 785.07 480.455 781.477 481.074Z" fill="#720026"/>
<path d="M722.636 429C746.033 429 765 410.161 765 386.923C765 363.684 746.033 344.845 722.636 344.845C699.239 344.845 680.271 363.684 680.271 386.923C680.271 410.161 699.239 429 722.636 429Z" fill="#FFB290"/>
<path d="M721.537 344C745.129 344 765.89 361.356 764.971 388.569C738.415 376.792 710.397 376.451 680 386.943C680.605 362.466 697.945 344 721.537 344Z" fill="#D4FF8B"/>
<path d="M723.211 428.986C746.84 428.986 761.409 413.442 764.402 393.688C723.211 411.433 716.267 410.3 680.819 393.829C684.119 413.484 699.582 428.986 723.211 428.986Z" fill="#FCFFE2"/>
<path d="M743.706 399.071C747.673 399.071 750.889 395.855 750.889 391.888C750.889 387.921 747.673 384.705 743.706 384.705C739.738 384.705 736.522 387.921 736.522 391.888C736.522 395.855 739.738 399.071 743.706 399.071Z" fill="#DD6E3E"/>
<path d="M743.104 391.289C746.7 391.908 748.596 393.912 748.129 395.872L735.107 393.603C735.575 391.622 739.508 390.649 743.104 391.289Z" fill="#720026"/>
<path d="M749.093 396.074C752.686 396.713 754.254 395.236 754.764 393.276L743.108 391.285C742.597 393.266 745.5 395.455 749.093 396.074Z" fill="#720026"/>
<path d="M701.866 399.071C697.899 399.071 694.683 395.855 694.683 391.888C694.683 387.921 697.899 384.705 701.866 384.705C705.833 384.705 709.049 387.921 709.049 391.888C709.049 395.855 705.833 399.071 701.866 399.071Z" fill="#DD6E3E"/>
<path d="M702.466 391.289C698.87 391.908 696.974 393.912 697.441 395.872L710.463 393.603C709.996 391.622 706.062 390.649 702.466 391.289Z" fill="#720026"/>
<path d="M696.477 396.074C692.884 396.713 691.317 395.236 690.806 393.276L702.462 391.285C702.973 393.266 700.07 395.455 696.477 396.074Z" fill="#720026"/>
<path d="M807.636 514C831.033 514 850 495.161 850 471.923C850 448.684 831.033 429.845 807.636 429.845C784.239 429.845 765.271 448.684 765.271 471.923C765.271 495.161 784.239 514 807.636 514Z" fill="#FFB290"/>
<path d="M806.537 429C830.129 429 850.89 446.356 849.971 473.569C823.415 461.792 795.397 461.451 765 471.943C765.605 447.466 782.945 429 806.537 429Z" fill="#D4FF8B"/>
<path d="M808.211 513.986C831.84 513.986 846.409 498.442 849.402 478.688C808.211 496.433 801.267 495.3 765.819 478.829C769.119 498.484 784.582 513.986 808.211 513.986Z" fill="#FCFFE2"/>
<path d="M828.706 484.071C832.673 484.071 835.889 480.855 835.889 476.888C835.889 472.921 832.673 469.705 828.706 469.705C824.738 469.705 821.522 472.921 821.522 476.888C821.522 480.855 824.738 484.071 828.706 484.071Z" fill="#DD6E3E"/>
<path d="M828.104 476.289C831.7 476.908 833.596 478.912 833.129 480.872L820.107 478.603C820.575 476.622 824.508 475.649 828.104 476.289Z" fill="#720026"/>
<path d="M834.093 481.074C837.686 481.713 839.254 480.236 839.764 478.276L828.108 476.285C827.597 478.266 830.5 480.455 834.093 481.074Z" fill="#720026"/>
<path d="M786.866 484.071C782.899 484.071 779.683 480.855 779.683 476.888C779.683 472.921 782.899 469.705 786.866 469.705C790.833 469.705 794.049 472.921 794.049 476.888C794.049 480.855 790.833 484.071 786.866 484.071Z" fill="#DD6E3E"/>
<path d="M787.466 476.289C783.87 476.908 781.974 478.912 782.441 480.872L795.463 478.603C794.996 476.622 791.062 475.649 787.466 476.289Z" fill="#720026"/>
<path d="M781.477 481.074C777.884 481.713 776.317 480.236 775.806 478.276L787.462 476.285C787.973 478.266 785.07 480.455 781.477 481.074Z" fill="#720026"/>
<path d="M467.636 428C491.033 428 510 409.161 510 385.923C510 362.684 491.033 343.845 467.636 343.845C444.239 343.845 425.271 362.684 425.271 385.923C425.271 409.161 444.239 428 467.636 428Z" fill="#FFB290"/>
<path d="M466.537 343C490.129 343 510.89 360.356 509.971 387.569C483.415 375.792 455.397 375.451 425 385.943C425.605 361.466 442.945 343 466.537 343Z" fill="#D4FF8B"/>
<path d="M468.211 427.986C491.84 427.986 506.409 412.442 509.402 392.688C468.211 410.433 461.267 409.3 425.819 392.829C429.119 412.484 444.582 427.986 468.211 427.986Z" fill="#FCFFE2"/>
<path d="M488.706 398.071C492.673 398.071 495.889 394.855 495.889 390.888C495.889 386.921 492.673 383.705 488.706 383.705C484.738 383.705 481.522 386.921 481.522 390.888C481.522 394.855 484.738 398.071 488.706 398.071Z" fill="#DD6E3E"/>
<path d="M488.104 390.289C491.7 390.908 493.596 392.912 493.129 394.872L480.107 392.603C480.575 390.622 484.508 389.649 488.104 390.289Z" fill="#720026"/>
<path d="M494.093 395.074C497.686 395.713 499.254 394.236 499.764 392.276L488.108 390.285C487.597 392.266 490.5 394.455 494.093 395.074Z" fill="#720026"/>
<path d="M446.866 398.071C442.899 398.071 439.683 394.855 439.683 390.888C439.683 386.921 442.899 383.705 446.866 383.705C450.833 383.705 454.049 386.921 454.049 390.888C454.049 394.855 450.833 398.071 446.866 398.071Z" fill="#DD6E3E"/>
<path d="M447.466 390.289C443.87 390.908 441.974 392.912 442.441 394.872L455.463 392.603C454.996 390.622 451.062 389.649 447.466 390.289Z" fill="#720026"/>
<path d="M441.477 395.074C437.884 395.713 436.317 394.236 435.806 392.276L447.462 390.285C447.973 392.266 445.07 394.455 441.477 395.074Z" fill="#720026"/>
<path d="M42.6357 254C66.0328 254 84.9999 235.161 84.9999 211.923C84.9999 188.684 66.0328 169.845 42.6357 169.845C19.2386 169.845 0.271484 188.684 0.271484 211.923C0.271484 235.161 19.2386 254 42.6357 254Z" fill="#FFB290"/>
<path d="M41.5369 169C65.1288 169 85.8902 186.356 84.9706 213.569C58.415 201.792 30.3971 201.451 0 211.943C0.605278 187.466 17.945 169 41.5369 169Z" fill="#D4FF8B"/>
<path d="M43.2111 253.986C66.8401 253.986 81.4089 238.442 84.4019 218.688C43.2111 236.433 36.2669 235.3 0.818848 218.829C4.11884 238.484 19.5821 253.986 43.2111 253.986Z" fill="#FCFFE2"/>
<path d="M63.7056 224.071C67.6727 224.071 70.8887 220.855 70.8887 216.888C70.8887 212.921 67.6727 209.705 63.7056 209.705C59.7384 209.705 56.5225 212.921 56.5225 216.888C56.5225 220.855 59.7384 224.071 63.7056 224.071Z" fill="#DD6E3E"/>
<path d="M63.1043 216.289C66.7004 216.908 68.5965 218.912 68.1295 220.872L55.1074 218.603C55.5748 216.622 59.5085 215.649 63.1043 216.289Z" fill="#720026"/>
<path d="M69.0933 221.074C72.6862 221.713 74.2535 220.236 74.7639 218.276L63.1077 216.285C62.5973 218.266 65.5 220.455 69.0933 221.074Z" fill="#720026"/>
<path d="M21.866 224.071C17.8989 224.071 14.6829 220.855 14.6829 216.888C14.6829 212.921 17.8989 209.705 21.866 209.705C25.8331 209.705 29.0491 212.921 29.0491 216.888C29.0491 220.855 25.8331 224.071 21.866 224.071Z" fill="#DD6E3E"/>
<path d="M22.4664 216.289C18.8703 216.908 16.9742 218.912 17.4412 220.872L30.4632 218.603C29.9959 216.622 26.0621 215.649 22.4664 216.289Z" fill="#720026"/>
<path d="M16.4768 221.074C12.8839 221.713 11.3165 220.236 10.8062 218.276L22.4624 216.285C22.9728 218.266 20.07 220.455 16.4768 221.074Z" fill="#720026"/>
<path d="M807.636 768C831.033 768 850 749.161 850 725.923C850 702.684 831.033 683.845 807.636 683.845C784.239 683.845 765.271 702.684 765.271 725.923C765.271 749.161 784.239 768 807.636 768Z" fill="#FFB290"/>
<path d="M806.537 683C830.129 683 850.89 700.356 849.971 727.569C823.415 715.792 795.397 715.451 765 725.943C765.605 701.466 782.945 683 806.537 683Z" fill="#D4FF8B"/>
<path d="M808.211 767.986C831.84 767.986 846.409 752.442 849.402 732.688C808.211 750.433 801.267 749.3 765.819 732.829C769.119 752.484 784.582 767.986 808.211 767.986Z" fill="#FCFFE2"/>
<path d="M828.706 738.071C832.673 738.071 835.889 734.855 835.889 730.888C835.889 726.921 832.673 723.705 828.706 723.705C824.738 723.705 821.522 726.921 821.522 730.888C821.522 734.855 824.738 738.071 828.706 738.071Z" fill="#DD6E3E"/>
<path d="M828.104 730.289C831.7 730.908 833.596 732.912 833.129 734.872L820.107 732.603C820.575 730.622 824.508 729.649 828.104 730.289Z" fill="#720026"/>
<path d="M834.093 735.074C837.686 735.713 839.254 734.236 839.764 732.276L828.108 730.285C827.597 732.266 830.5 734.455 834.093 735.074Z" fill="#720026"/>
<path d="M786.866 738.071C782.899 738.071 779.683 734.855 779.683 730.888C779.683 726.921 782.899 723.705 786.866 723.705C790.833 723.705 794.049 726.921 794.049 730.888C794.049 734.855 790.833 738.071 786.866 738.071Z" fill="#DD6E3E"/>
<path d="M787.466 730.289C783.87 730.908 781.974 732.912 782.441 734.872L795.463 732.603C794.996 730.622 791.062 729.649 787.466 730.289Z" fill="#720026"/>
<path d="M781.477 735.074C777.884 735.713 776.317 734.236 775.806 732.276L787.462 730.285C787.973 732.266 785.07 734.455 781.477 735.074Z" fill="#720026"/>
<path d="M637.636 768C661.033 768 680 749.161 680 725.923C680 702.684 661.033 683.845 637.636 683.845C614.239 683.845 595.271 702.684 595.271 725.923C595.271 749.161 614.239 768 637.636 768Z" fill="#FFB290"/>
<path d="M636.537 683C660.129 683 680.89 700.356 679.971 727.569C653.415 715.792 625.397 715.451 595 725.943C595.605 701.466 612.945 683 636.537 683Z" fill="#D4FF8B"/>
<path d="M638.211 767.986C661.84 767.986 676.409 752.442 679.402 732.688C638.211 750.433 631.267 749.3 595.819 732.829C599.119 752.484 614.582 767.986 638.211 767.986Z" fill="#FCFFE2"/>
<path d="M658.706 738.071C662.673 738.071 665.889 734.855 665.889 730.888C665.889 726.921 662.673 723.705 658.706 723.705C654.738 723.705 651.522 726.921 651.522 730.888C651.522 734.855 654.738 738.071 658.706 738.071Z" fill="#DD6E3E"/>
<path d="M658.104 730.289C661.7 730.908 663.596 732.912 663.129 734.872L650.107 732.603C650.575 730.622 654.508 729.649 658.104 730.289Z" fill="#720026"/>
<path d="M664.093 735.074C667.686 735.713 669.254 734.236 669.764 732.276L658.108 730.285C657.597 732.266 660.5 734.455 664.093 735.074Z" fill="#720026"/>
<path d="M616.866 738.071C612.899 738.071 609.683 734.855 609.683 730.888C609.683 726.921 612.899 723.705 616.866 723.705C620.833 723.705 624.049 726.921 624.049 730.888C624.049 734.855 620.833 738.071 616.866 738.071Z" fill="#DD6E3E"/>
<path d="M617.466 730.289C613.87 730.908 611.974 732.912 612.441 734.872L625.463 732.603C624.996 730.622 621.062 729.649 617.466 730.289Z" fill="#720026"/>
<path d="M611.477 735.074C607.884 735.713 606.317 734.236 605.806 732.276L617.462 730.285C617.973 732.266 615.07 734.455 611.477 735.074Z" fill="#720026"/>
<path d="M722.636 853C746.033 853 765 834.161 765 810.923C765 787.684 746.033 768.845 722.636 768.845C699.239 768.845 680.271 787.684 680.271 810.923C680.271 834.161 699.239 853 722.636 853Z" fill="#FFB290"/>
<path d="M721.537 768C745.129 768 765.89 785.356 764.971 812.569C738.415 800.792 710.397 800.451 680 810.943C680.605 786.466 697.945 768 721.537 768Z" fill="#D4FF8B"/>
<path d="M723.211 852.986C746.84 852.986 761.409 837.442 764.402 817.688C723.211 835.433 716.267 834.3 680.819 817.829C684.119 837.484 699.582 852.986 723.211 852.986Z" fill="#FCFFE2"/>
<path d="M743.706 823.071C747.673 823.071 750.889 819.855 750.889 815.888C750.889 811.921 747.673 808.705 743.706 808.705C739.738 808.705 736.522 811.921 736.522 815.888C736.522 819.855 739.738 823.071 743.706 823.071Z" fill="#DD6E3E"/>
<path d="M743.104 815.289C746.7 815.908 748.596 817.912 748.129 819.872L735.107 817.603C735.575 815.622 739.508 814.649 743.104 815.289Z" fill="#720026"/>
<path d="M749.093 820.074C752.686 820.713 754.254 819.236 754.764 817.276L743.108 815.285C742.597 817.266 745.5 819.455 749.093 820.074Z" fill="#720026"/>
<path d="M701.866 823.071C697.899 823.071 694.683 819.855 694.683 815.888C694.683 811.921 697.899 808.705 701.866 808.705C705.833 808.705 709.049 811.921 709.049 815.888C709.049 819.855 705.833 823.071 701.866 823.071Z" fill="#DD6E3E"/>
<path d="M702.466 815.289C698.87 815.908 696.974 817.912 697.441 819.872L710.463 817.603C709.996 815.622 706.062 814.649 702.466 815.289Z" fill="#720026"/>
<path d="M696.477 820.074C692.884 820.713 691.317 819.236 690.806 817.276L702.462 815.285C702.973 817.266 700.07 819.455 696.477 820.074Z" fill="#720026"/>
<path d="M637.636 768C661.033 768 680 749.161 680 725.923C680 702.684 661.033 683.845 637.636 683.845C614.239 683.845 595.271 702.684 595.271 725.923C595.271 749.161 614.239 768 637.636 768Z" fill="#FFB290"/>
<path d="M636.537 683C660.129 683 680.89 700.356 679.971 727.569C653.415 715.792 625.397 715.451 595 725.943C595.605 701.466 612.945 683 636.537 683Z" fill="#D4FF8B"/>
<path d="M638.211 767.986C661.84 767.986 676.409 752.442 679.402 732.688C638.211 750.433 631.267 749.3 595.819 732.829C599.119 752.484 614.582 767.986 638.211 767.986Z" fill="#FCFFE2"/>
<path d="M658.706 738.071C662.673 738.071 665.889 734.855 665.889 730.888C665.889 726.921 662.673 723.705 658.706 723.705C654.738 723.705 651.522 726.921 651.522 730.888C651.522 734.855 654.738 738.071 658.706 738.071Z" fill="#DD6E3E"/>
<path d="M658.104 730.289C661.7 730.908 663.596 732.912 663.129 734.872L650.107 732.603C650.575 730.622 654.508 729.649 658.104 730.289Z" fill="#720026"/>
<path d="M664.093 735.074C667.686 735.713 669.254 734.236 669.764 732.276L658.108 730.285C657.597 732.266 660.5 734.455 664.093 735.074Z" fill="#720026"/>
<path d="M616.866 738.071C612.899 738.071 609.683 734.855 609.683 730.888C609.683 726.921 612.899 723.705 616.866 723.705C620.833 723.705 624.049 726.921 624.049 730.888C624.049 734.855 620.833 738.071 616.866 738.071Z" fill="#DD6E3E"/>
<path d="M617.466 730.289C613.87 730.908 611.974 732.912 612.441 734.872L625.463 732.603C624.996 730.622 621.062 729.649 617.466 730.289Z" fill="#720026"/>
<path d="M611.477 735.074C607.884 735.713 606.317 734.236 605.806 732.276L617.462 730.285C617.973 732.266 615.07 734.455 611.477 735.074Z" fill="#720026"/>
<path d="M722.636 853C746.033 853 765 834.161 765 810.923C765 787.684 746.033 768.845 722.636 768.845C699.239 768.845 680.271 787.684 680.271 810.923C680.271 834.161 699.239 853 722.636 853Z" fill="#FFB290"/>
<path d="M721.537 768C745.129 768 765.89 785.356 764.971 812.569C738.415 800.792 710.397 800.451 680 810.943C680.605 786.466 697.945 768 721.537 768Z" fill="#D4FF8B"/>
<path d="M723.211 852.986C746.84 852.986 761.409 837.442 764.402 817.688C723.211 835.433 716.267 834.3 680.819 817.829C684.119 837.484 699.582 852.986 723.211 852.986Z" fill="#FCFFE2"/>
<path d="M743.706 823.071C747.673 823.071 750.889 819.855 750.889 815.888C750.889 811.921 747.673 808.705 743.706 808.705C739.738 808.705 736.522 811.921 736.522 815.888C736.522 819.855 739.738 823.071 743.706 823.071Z" fill="#DD6E3E"/>
<path d="M743.104 815.289C746.7 815.908 748.596 817.912 748.129 819.872L735.107 817.603C735.575 815.622 739.508 814.649 743.104 815.289Z" fill="#720026"/>
<path d="M749.093 820.074C752.686 820.713 754.254 819.236 754.764 817.276L743.108 815.285C742.597 817.266 745.5 819.455 749.093 820.074Z" fill="#720026"/>
<path d="M701.866 823.071C697.899 823.071 694.683 819.855 694.683 815.888C694.683 811.921 697.899 808.705 701.866 808.705C705.833 808.705 709.049 811.921 709.049 815.888C709.049 819.855 705.833 823.071 701.866 823.071Z" fill="#DD6E3E"/>
<path d="M702.466 815.289C698.87 815.908 696.974 817.912 697.441 819.872L710.463 817.603C709.996 815.622 706.062 814.649 702.466 815.289Z" fill="#720026"/>
<path d="M696.477 820.074C692.884 820.713 691.317 819.236 690.806 817.276L702.462 815.285C702.973 817.266 700.07 819.455 696.477 820.074Z" fill="#720026"/>
<path d="M552.636 768C576.033 768 595 749.161 595 725.923C595 702.684 576.033 683.845 552.636 683.845C529.239 683.845 510.271 702.684 510.271 725.923C510.271 749.161 529.239 768 552.636 768Z" fill="#FFB290"/>
<path d="M551.537 683C575.129 683 595.89 700.356 594.971 727.569C568.415 715.792 540.397 715.451 510 725.943C510.605 701.466 527.945 683 551.537 683Z" fill="#D4FF8B"/>
<path d="M553.211 767.986C576.84 767.986 591.409 752.442 594.402 732.688C553.211 750.433 546.267 749.3 510.819 732.829C514.119 752.484 529.582 767.986 553.211 767.986Z" fill="#FCFFE2"/>
<path d="M573.706 738.071C577.673 738.071 580.889 734.855 580.889 730.888C580.889 726.921 577.673 723.705 573.706 723.705C569.738 723.705 566.522 726.921 566.522 730.888C566.522 734.855 569.738 738.071 573.706 738.071Z" fill="#DD6E3E"/>
<path d="M573.104 730.289C576.7 730.908 578.596 732.912 578.129 734.872L565.107 732.603C565.575 730.622 569.508 729.649 573.104 730.289Z" fill="#720026"/>
<path d="M579.093 735.074C582.686 735.713 584.254 734.236 584.764 732.276L573.108 730.285C572.597 732.266 575.5 734.455 579.093 735.074Z" fill="#720026"/>
<path d="M531.866 738.071C527.899 738.071 524.683 734.855 524.683 730.888C524.683 726.921 527.899 723.705 531.866 723.705C535.833 723.705 539.049 726.921 539.049 730.888C539.049 734.855 535.833 738.071 531.866 738.071Z" fill="#DD6E3E"/>
<path d="M532.466 730.289C528.87 730.908 526.974 732.912 527.441 734.872L540.463 732.603C539.996 730.622 536.062 729.649 532.466 730.289Z" fill="#720026"/>
<path d="M526.477 735.074C522.884 735.713 521.317 734.236 520.806 732.276L532.462 730.285C532.973 732.266 530.07 734.455 526.477 735.074Z" fill="#720026"/>
<path d="M382.636 768C406.033 768 425 749.161 425 725.923C425 702.684 406.033 683.845 382.636 683.845C359.239 683.845 340.271 702.684 340.271 725.923C340.271 749.161 359.239 768 382.636 768Z" fill="#FFB290"/>
<path d="M381.537 683C405.129 683 425.89 700.356 424.971 727.569C398.415 715.792 370.397 715.451 340 725.943C340.605 701.466 357.945 683 381.537 683Z" fill="#D4FF8B"/>
<path d="M383.211 767.986C406.84 767.986 421.409 752.442 424.402 732.688C383.211 750.433 376.267 749.3 340.819 732.829C344.119 752.484 359.582 767.986 383.211 767.986Z" fill="#FCFFE2"/>
<path d="M403.706 738.071C407.673 738.071 410.889 734.855 410.889 730.888C410.889 726.921 407.673 723.705 403.706 723.705C399.738 723.705 396.522 726.921 396.522 730.888C396.522 734.855 399.738 738.071 403.706 738.071Z" fill="#DD6E3E"/>
<path d="M403.104 730.289C406.7 730.908 408.596 732.912 408.129 734.872L395.107 732.603C395.575 730.622 399.508 729.649 403.104 730.289Z" fill="#720026"/>
<path d="M409.093 735.074C412.686 735.713 414.254 734.236 414.764 732.276L403.108 730.285C402.597 732.266 405.5 734.455 409.093 735.074Z" fill="#720026"/>
<path d="M361.866 738.071C357.899 738.071 354.683 734.855 354.683 730.888C354.683 726.921 357.899 723.705 361.866 723.705C365.833 723.705 369.049 726.921 369.049 730.888C369.049 734.855 365.833 738.071 361.866 738.071Z" fill="#DD6E3E"/>
<path d="M362.466 730.289C358.87 730.908 356.974 732.912 357.441 734.872L370.463 732.603C369.996 730.622 366.062 729.649 362.466 730.289Z" fill="#720026"/>
<path d="M356.477 735.074C352.884 735.713 351.317 734.236 350.806 732.276L362.462 730.285C362.973 732.266 360.07 734.455 356.477 735.074Z" fill="#720026"/>
<path d="M467.636 853C491.033 853 510 834.161 510 810.923C510 787.684 491.033 768.845 467.636 768.845C444.239 768.845 425.271 787.684 425.271 810.923C425.271 834.161 444.239 853 467.636 853Z" fill="#FFB290"/>
<path d="M466.537 768C490.129 768 510.89 785.356 509.971 812.569C483.415 800.792 455.397 800.451 425 810.943C425.605 786.466 442.945 768 466.537 768Z" fill="#D4FF8B"/>
<path d="M468.211 852.986C491.84 852.986 506.409 837.442 509.402 817.688C468.211 835.433 461.267 834.3 425.819 817.829C429.119 837.484 444.582 852.986 468.211 852.986Z" fill="#FCFFE2"/>
<path d="M488.706 823.071C492.673 823.071 495.889 819.855 495.889 815.888C495.889 811.921 492.673 808.705 488.706 808.705C484.738 808.705 481.522 811.921 481.522 815.888C481.522 819.855 484.738 823.071 488.706 823.071Z" fill="#DD6E3E"/>
<path d="M488.104 815.289C491.7 815.908 493.596 817.912 493.129 819.872L480.107 817.603C480.575 815.622 484.508 814.649 488.104 815.289Z" fill="#720026"/>
<path d="M494.093 820.074C497.686 820.713 499.254 819.236 499.764 817.276L488.108 815.285C487.597 817.266 490.5 819.455 494.093 820.074Z" fill="#720026"/>
<path d="M446.866 823.071C442.899 823.071 439.683 819.855 439.683 815.888C439.683 811.921 442.899 808.705 446.866 808.705C450.833 808.705 454.049 811.921 454.049 815.888C454.049 819.855 450.833 823.071 446.866 823.071Z" fill="#DD6E3E"/>
<path d="M447.466 815.289C443.87 815.908 441.974 817.912 442.441 819.872L455.463 817.603C454.996 815.622 451.062 814.649 447.466 815.289Z" fill="#720026"/>
<path d="M441.477 820.074C437.884 820.713 436.317 819.236 435.806 817.276L447.462 815.285C447.973 817.266 445.07 819.455 441.477 820.074Z" fill="#720026"/>
<path d="M807.636 684C831.033 684 850 665.161 850 641.923C850 618.684 831.033 599.845 807.636 599.845C784.239 599.845 765.271 618.684 765.271 641.923C765.271 665.161 784.239 684 807.636 684Z" fill="#FFB290"/>
<path d="M806.537 599C830.129 599 850.89 616.356 849.971 643.569C823.415 631.792 795.397 631.451 765 641.943C765.605 617.466 782.945 599 806.537 599Z" fill="#D4FF8B"/>
<path d="M808.211 683.986C831.84 683.986 846.409 668.442 849.402 648.688C808.211 666.433 801.267 665.3 765.819 648.829C769.119 668.484 784.582 683.986 808.211 683.986Z" fill="#FCFFE2"/>
<path d="M828.706 654.071C832.673 654.071 835.889 650.855 835.889 646.888C835.889 642.921 832.673 639.705 828.706 639.705C824.738 639.705 821.522 642.921 821.522 646.888C821.522 650.855 824.738 654.071 828.706 654.071Z" fill="#DD6E3E"/>
<path d="M828.104 646.289C831.7 646.908 833.596 648.912 833.129 650.872L820.107 648.603C820.575 646.622 824.508 645.649 828.104 646.289Z" fill="#720026"/>
<path d="M834.093 651.074C837.686 651.713 839.254 650.236 839.764 648.276L828.108 646.285C827.597 648.266 830.5 650.455 834.093 651.074Z" fill="#720026"/>
<path d="M786.866 654.071C782.899 654.071 779.683 650.855 779.683 646.888C779.683 642.921 782.899 639.705 786.866 639.705C790.833 639.705 794.049 642.921 794.049 646.888C794.049 650.855 790.833 654.071 786.866 654.071Z" fill="#DD6E3E"/>
<path d="M787.466 646.289C783.87 646.908 781.974 648.912 782.441 650.872L795.463 648.603C794.996 646.622 791.062 645.649 787.466 646.289Z" fill="#720026"/>
<path d="M781.477 651.074C777.884 651.713 776.317 650.236 775.806 648.276L787.462 646.285C787.973 648.266 785.07 650.455 781.477 651.074Z" fill="#720026"/>
<path d="M637.636 598C661.033 598 680 579.161 680 555.923C680 532.684 661.033 513.845 637.636 513.845C614.239 513.845 595.271 532.684 595.271 555.923C595.271 579.161 614.239 598 637.636 598Z" fill="#FFB290"/>
<path d="M636.537 513C660.129 513 680.89 530.356 679.971 557.569C653.415 545.792 625.397 545.451 595 555.943C595.605 531.466 612.945 513 636.537 513Z" fill="#D4FF8B"/>
<path d="M638.211 597.986C661.84 597.986 676.409 582.442 679.402 562.688C638.211 580.433 631.267 579.3 595.819 562.829C599.119 582.484 614.582 597.986 638.211 597.986Z" fill="#FCFFE2"/>
<path d="M658.706 568.071C662.673 568.071 665.889 564.855 665.889 560.888C665.889 556.921 662.673 553.705 658.706 553.705C654.738 553.705 651.522 556.921 651.522 560.888C651.522 564.855 654.738 568.071 658.706 568.071Z" fill="#DD6E3E"/>
<path d="M658.104 560.289C661.7 560.908 663.596 562.912 663.129 564.872L650.107 562.603C650.575 560.622 654.508 559.649 658.104 560.289Z" fill="#720026"/>
<path d="M664.093 565.074C667.686 565.713 669.254 564.236 669.764 562.276L658.108 560.285C657.597 562.266 660.5 564.455 664.093 565.074Z" fill="#720026"/>
<path d="M616.866 568.071C612.899 568.071 609.683 564.855 609.683 560.888C609.683 556.921 612.899 553.705 616.866 553.705C620.833 553.705 624.049 556.921 624.049 560.888C624.049 564.855 620.833 568.071 616.866 568.071Z" fill="#DD6E3E"/>
<path d="M617.466 560.289C613.87 560.908 611.974 562.912 612.441 564.872L625.463 562.603C624.996 560.622 621.062 559.649 617.466 560.289Z" fill="#720026"/>
<path d="M611.477 565.074C607.884 565.713 606.317 564.236 605.806 562.276L617.462 560.285C617.973 562.266 615.07 564.455 611.477 565.074Z" fill="#720026"/>
<path d="M765 598H680V513H765V598ZM722.056 520.985C711.825 520.985 703.581 525.084 703.581 530.079H740.634C740.634 525.084 732.286 520.985 722.056 520.985Z" fill="#B55024"/>
<path d="M595 170H510V85H595V170ZM552.056 92.9846C541.825 92.9846 533.581 97.0841 533.581 102.079H570.634C570.634 97.0841 562.286 92.9846 552.056 92.9846Z" fill="#B55024"/>
<path d="M510 170H425V85H510V170ZM467.056 92.9846C456.825 92.9846 448.581 97.0841 448.581 102.079H485.634C485.634 97.0841 477.286 92.9846 467.056 92.9846Z" fill="#B55024"/>
<path d="M425 85H340V0H425V85ZM382.056 7.98457C371.825 7.98457 363.581 12.0841 363.581 17.0788H400.634C400.634 12.0841 392.286 7.98457 382.056 7.98457Z" fill="#B55024"/>
<path d="M340 170H255V85H340V170ZM297.056 92.9846C286.825 92.9846 278.581 97.0841 278.581 102.079H315.634C315.634 97.0841 307.286 92.9846 297.056 92.9846Z" fill="#B55024"/>
<path d="M425 85H340V0H425V85ZM382.056 7.98457C371.825 7.98457 363.581 12.0841 363.581 17.0788H400.634C400.634 12.0841 392.286 7.98457 382.056 7.98457Z" fill="#B55024"/>
<path d="M340 170H255V85H340V170ZM297.056 92.9846C286.825 92.9846 278.581 97.0841 278.581 102.079H315.634C315.634 97.0841 307.286 92.9846 297.056 92.9846Z" fill="#B55024"/>
<path d="M255 509H170V424H255V509ZM212.056 431.985C201.825 431.985 193.581 436.084 193.581 441.079H230.634C230.634 436.084 222.286 431.985 212.056 431.985Z" fill="#B55024"/>
<path d="M170 424H85V339H170V424ZM127.056 346.985C116.825 346.985 108.581 351.084 108.581 356.079H145.634C145.634 351.084 137.286 346.985 127.056 346.985Z" fill="#B55024"/>
<path d="M85 509H0V424H85V509ZM42.0556 431.985C31.8249 431.985 23.5809 436.084 23.5809 441.079H60.6344C60.6344 436.084 52.2862 431.985 42.0556 431.985Z" fill="#B55024"/>
<path d="M170 424H85V339H170V424ZM127.056 346.985C116.825 346.985 108.581 351.084 108.581 356.079H145.634C145.634 351.084 137.286 346.985 127.056 346.985Z" fill="#B55024"/>
<path d="M85 509H0V424H85V509ZM42.0556 431.985C31.8249 431.985 23.5809 436.084 23.5809 441.079H60.6344C60.6344 436.084 52.2862 431.985 42.0556 431.985Z" fill="#B55024"/>
<path d="M255 594H170V509H255V594ZM212.056 516.985C201.825 516.985 193.581 521.084 193.581 526.079H230.634C230.634 521.084 222.286 516.985 212.056 516.985Z" fill="#B55024"/>
<path d="M255 679H170V594H255V679ZM212.056 601.985C201.825 601.985 193.581 606.084 193.581 611.079H230.634C230.634 606.084 222.286 601.985 212.056 601.985Z" fill="#B55024"/>
<path d="M170 594H85V509H170V594ZM127.056 516.985C116.825 516.985 108.581 521.084 108.581 526.079H145.634C145.634 521.084 137.286 516.985 127.056 516.985Z" fill="#B55024"/>
<path d="M85 679H0V594H85V679ZM42.0556 601.985C31.8249 601.985 23.5809 606.084 23.5809 611.079H60.6344C60.6344 606.084 52.2862 601.985 42.0556 601.985Z" fill="#B55024"/>
<path d="M170 594H85V509H170V594ZM127.056 516.985C116.825 516.985 108.581 521.084 108.581 526.079H145.634C145.634 521.084 137.286 516.985 127.056 516.985Z" fill="#B55024"/>
<path d="M85 679H0V594H85V679ZM42.0556 601.985C31.8249 601.985 23.5809 606.084 23.5809 611.079H60.6344C60.6344 606.084 52.2862 601.985 42.0556 601.985Z" fill="#B55024"/>
<path d="M680 428H595V343H680V428ZM637.056 350.985C626.825 350.985 618.581 355.084 618.581 360.079H655.634C655.634 355.084 647.286 350.985 637.056 350.985Z" fill="#B55024"/>
<path d="M595 428H510V343H595V428ZM552.056 350.985C541.825 350.985 533.581 355.084 533.581 360.079H570.634C570.634 355.084 562.286 350.985 552.056 350.985Z" fill="#B55024"/>
<path d="M850 429H765V344H850V429ZM807.056 351.985C796.825 351.985 788.581 356.084 788.581 361.079H825.634C825.634 356.084 817.286 351.985 807.056 351.985Z" fill="#B55024"/>
<path d="M765 514H680V429H765V514ZM722.056 436.985C711.825 436.985 703.581 441.084 703.581 446.079H740.634C740.634 441.084 732.286 436.985 722.056 436.985Z" fill="#B55024"/>
<path d="M850 429H765V344H850V429ZM807.056 351.985C796.825 351.985 788.581 356.084 788.581 361.079H825.634C825.634 356.084 817.286 351.985 807.056 351.985Z" fill="#B55024"/>
<path d="M765 514H680V429H765V514ZM722.056 436.985C711.825 436.985 703.581 441.084 703.581 446.079H740.634C740.634 441.084 732.286 436.985 722.056 436.985Z" fill="#B55024"/>
<path d="M510 513H425V428H510V513ZM467.056 435.985C456.825 435.985 448.581 440.084 448.581 445.079H485.634C485.634 440.084 477.286 435.985 467.056 435.985Z" fill="#B55024"/>
<path d="M170 254H85V169H170V254ZM127.056 176.985C116.825 176.985 108.581 181.084 108.581 186.079H145.634C145.634 181.084 137.286 176.985 127.056 176.985Z" fill="#B55024"/>
<path d="M85 339H0V254H85V339ZM42.0556 261.985C31.8249 261.985 23.5809 266.084 23.5809 271.079H60.6344C60.6344 266.084 52.2862 261.985 42.0556 261.985Z" fill="#B55024"/>
<path d="M255 255H170V170H255V255ZM212.056 177.985C201.825 177.985 193.581 182.084 193.581 187.079H230.634C230.634 182.084 222.286 177.985 212.056 177.985Z" fill="#B55024"/>
<path d="M170 339H85V254H170V339ZM127.056 261.985C116.825 261.985 108.581 266.084 108.581 271.079H145.634C145.634 266.084 137.286 261.985 127.056 261.985Z" fill="#B55024"/>
<path d="M850 853H765V768H850V853ZM807.056 775.985C796.825 775.985 788.581 780.084 788.581 785.079H825.634C825.634 780.084 817.286 775.985 807.056 775.985Z" fill="#B55024"/>
<path d="M765 768H680V683H765V768ZM722.056 690.985C711.825 690.985 703.581 695.084 703.581 700.079H740.634C740.634 695.084 732.286 690.985 722.056 690.985Z" fill="#B55024"/>
<path d="M680 853H595V768H680V853ZM637.056 775.985C626.825 775.985 618.581 780.084 618.581 785.079H655.634C655.634 780.084 647.286 775.985 637.056 775.985Z" fill="#B55024"/>
<path d="M765 768H680V683H765V768ZM722.056 690.985C711.825 690.985 703.581 695.084 703.581 700.079H740.634C740.634 695.084 732.286 690.985 722.056 690.985Z" fill="#B55024"/>
<path d="M680 853H595V768H680V853ZM637.056 775.985C626.825 775.985 618.581 780.084 618.581 785.079H655.634C655.634 780.084 647.286 775.985 637.056 775.985Z" fill="#B55024"/>
<path d="M595 853H510V768H595V853ZM552.056 775.985C541.825 775.985 533.581 780.084 533.581 785.079H570.634C570.634 780.084 562.286 775.985 552.056 775.985Z" fill="#B55024"/>
<path d="M510 768H425V683H510V768ZM467.056 690.985C456.825 690.985 448.581 695.084 448.581 700.079H485.634C485.634 695.084 477.286 690.985 467.056 690.985Z" fill="#B55024"/>
<path d="M425 853H340V768H425V853ZM382.056 775.985C371.825 775.985 363.581 780.084 363.581 785.079H400.634C400.634 780.084 392.286 775.985 382.056 775.985Z" fill="#B55024"/>
<path d="M467.636 853C491.033 853 510 834.161 510 810.923C510 787.684 491.033 768.845 467.636 768.845C444.239 768.845 425.271 787.684 425.271 810.923C425.271 834.161 444.239 853 467.636 853Z" fill="#FFB290"/>
<path d="M466.537 768C490.129 768 510.89 785.356 509.971 812.569C483.415 800.792 455.397 800.451 425 810.943C425.605 786.466 442.945 768 466.537 768Z" fill="#D4FF8B"/>
<path d="M468.211 852.986C491.84 852.986 506.409 837.442 509.402 817.688C468.211 835.433 461.267 834.3 425.819 817.829C429.119 837.484 444.582 852.986 468.211 852.986Z" fill="#FCFFE2"/>
<path d="M488.706 823.071C492.673 823.071 495.889 819.855 495.889 815.888C495.889 811.921 492.673 808.705 488.706 808.705C484.738 808.705 481.522 811.921 481.522 815.888C481.522 819.855 484.738 823.071 488.706 823.071Z" fill="#DD6E3E"/>
<path d="M488.104 815.289C491.7 815.908 493.596 817.912 493.129 819.872L480.107 817.603C480.575 815.622 484.508 814.649 488.104 815.289Z" fill="#720026"/>
<path d="M494.093 820.074C497.686 820.713 499.254 819.236 499.764 817.276L488.108 815.285C487.597 817.266 490.5 819.455 494.093 820.074Z" fill="#720026"/>
<path d="M446.866 823.071C442.899 823.071 439.683 819.855 439.683 815.888C439.683 811.921 442.899 808.705 446.866 808.705C450.833 808.705 454.049 811.921 454.049 815.888C454.049 819.855 450.833 823.071 446.866 823.071Z" fill="#DD6E3E"/>
<path d="M447.466 815.289C443.87 815.908 441.974 817.912 442.441 819.872L455.463 817.603C454.996 815.622 451.062 814.649 447.466 815.289Z" fill="#720026"/>
<path d="M441.477 820.074C437.884 820.713 436.317 819.236 435.806 817.276L447.462 815.285C447.973 817.266 445.07 819.455 441.477 820.074Z" fill="#720026"/>
<path d="M510 768H425V683H510V768ZM467.056 690.985C456.825 690.985 448.581 695.084 448.581 700.079H485.634C485.634 695.084 477.286 690.985 467.056 690.985Z" fill="#B55024"/>
<path d="M425 853H340V768H425V853ZM382.056 775.985C371.825 775.985 363.581 780.084 363.581 785.079H400.634C400.634 780.084 392.286 775.985 382.056 775.985Z" fill="#B55024"/>
<path d="M297.636 853C321.033 853 340 834.161 340 810.923C340 787.684 321.033 768.845 297.636 768.845C274.239 768.845 255.271 787.684 255.271 810.923C255.271 834.161 274.239 853 297.636 853Z" fill="#FFB290"/>
<path d="M296.537 768C320.129 768 340.89 785.356 339.971 812.569C313.415 800.792 285.397 800.451 255 810.943C255.605 786.466 272.945 768 296.537 768Z" fill="#D4FF8B"/>
<path d="M298.211 852.986C321.84 852.986 336.409 837.442 339.402 817.688C298.211 835.433 291.267 834.3 255.819 817.829C259.119 837.484 274.582 852.986 298.211 852.986Z" fill="#FCFFE2"/>
<path d="M318.706 823.071C322.673 823.071 325.889 819.855 325.889 815.888C325.889 811.921 322.673 808.705 318.706 808.705C314.738 808.705 311.522 811.921 311.522 815.888C311.522 819.855 314.738 823.071 318.706 823.071Z" fill="#DD6E3E"/>
<path d="M318.104 815.289C321.7 815.908 323.596 817.912 323.129 819.872L310.107 817.603C310.575 815.622 314.509 814.649 318.104 815.289Z" fill="#720026"/>
<path d="M324.093 820.074C327.686 820.713 329.254 819.236 329.764 817.276L318.108 815.285C317.597 817.266 320.5 819.455 324.093 820.074Z" fill="#720026"/>
<path d="M276.866 823.071C272.899 823.071 269.683 819.855 269.683 815.888C269.683 811.921 272.899 808.705 276.866 808.705C280.833 808.705 284.049 811.921 284.049 815.888C284.049 819.855 280.833 823.071 276.866 823.071Z" fill="#DD6E3E"/>
<path d="M277.466 815.289C273.87 815.908 271.974 817.912 272.441 819.872L285.463 817.603C284.996 815.622 281.062 814.649 277.466 815.289Z" fill="#720026"/>
<path d="M271.477 820.074C267.884 820.713 266.317 819.236 265.806 817.276L277.462 815.285C277.973 817.266 275.07 819.455 271.477 820.074Z" fill="#720026"/>
<path d="M340 768H255V683H340V768ZM297.056 690.985C286.825 690.985 278.581 695.084 278.581 700.079H315.634C315.634 695.084 307.286 690.985 297.056 690.985Z" fill="#B55024"/>
<path d="M680 683H595V598H680V683ZM637.056 605.985C626.825 605.985 618.581 610.084 618.581 615.079H655.634C655.634 610.084 647.286 605.985 637.056 605.985Z" fill="#B55024"/>
<path d="M850 599H765V514H850V599ZM807.056 521.985C796.825 521.985 788.581 526.084 788.581 531.079H825.634C825.634 526.084 817.286 521.985 807.056 521.985Z" fill="#B55024"/>
<path d="M765 683H680V598H765V683ZM722.056 605.985C711.825 605.985 703.581 610.084 703.581 615.079H740.634C740.634 610.084 732.286 605.985 722.056 605.985Z" fill="#B55024"/>
<path d="M850 170H765V85H850V170ZM807.056 92.9846C796.825 92.9846 788.581 97.0841 788.581 102.079H825.634C825.634 97.0841 817.286 92.9846 807.056 92.9846Z" fill="#B55024"/>
<path d="M680 170H595V85H680V170ZM637.056 92.9846C626.825 92.9846 618.581 97.0841 618.581 102.079H655.634C655.634 97.0841 647.286 92.9846 637.056 92.9846Z" fill="#B55024"/>
<path d="M680 85H595V0H680V85ZM637.056 7.98457C626.825 7.98457 618.581 12.0841 618.581 17.0788H655.634C655.634 12.0841 647.286 7.98457 637.056 7.98457Z" fill="#B55024"/>
<path d="M765 85H680V0H765V85ZM722.056 7.98457C711.825 7.98457 703.581 12.0841 703.581 17.0788H740.634C740.634 12.0841 732.286 7.98457 722.056 7.98457Z" fill="#B55024"/>
</svg>