<svg width="828" height="828" viewBox="0 0 828 828" fill="none" xmlns="http://www.w3.org/2000/svg">
  <path d="M310.712 828H0V745.084H310.712V828ZM828 828H517.288V745.084H828V828ZM517.288 82.916V331.664H724.43V248.748H620.858V165.832H828V662.168H620.858V579.252H724.43V496.336H517.288V745.084H310.712V496.336H517.288V331.664H310.712V496.336H103.57V579.252H207.142V662.168H0V165.832H207.142V248.748H103.57V331.664H310.712V82.916H517.288ZM310.712 82.916H0V0H310.712V82.916ZM828 82.916H517.288V0H828V82.916Z" fill="currentColor"/>
</svg>
