<svg width="1984" height="1984" viewBox="0 0 1984 1984" fill="none" xmlns="http://www.w3.org/2000/svg">
<rect width="1984" height="1984" fill="#FF76E3" style="fill:#FF76E3;fill:color(display-p3 1.0000 0.4619 0.8909);fill-opacity:1;"/>
<path d="M886.716 654.518V570H570V654.518H886.716ZM886.716 992.591V908.073H992.288V654.518H886.716V908.073H675.572V823.554H781.144V739.036H570V992.591H886.716Z" fill="url(#paint0_linear_4099_7392)"/>
<path d="M1097.28 654.518V570H1414V654.518H1097.28ZM1097.28 992.591V908.073H991.712V654.518H1097.28V908.073H1308.43V823.554H1202.86V739.036H1414V992.591H1097.28Z" fill="url(#paint1_linear_4099_7392)"/>
<path d="M886.716 1329.48V1414H570V1329.48H886.716ZM886.716 991.409V1075.93H992.288V1329.48H886.716V1075.93H675.572V1160.45H781.144V1244.96H570V991.409H886.716Z" fill="url(#paint2_linear_4099_7392)"/>
<path d="M1097.28 1329.48V1414H1414V1329.48H1097.28ZM1097.28 991.409V1075.93H991.712V1329.48H1097.28V1075.93H1308.43V1160.45H1202.86V1244.96H1414V991.409H1097.28Z" fill="url(#paint3_linear_4099_7392)"/>
<defs>
<linearGradient id="paint0_linear_4099_7392" x1="1420.11" y1="558.634" x2="579.369" y2="1406.89" gradientUnits="userSpaceOnUse">
<stop stop-color="#D4FF8B" style="stop-color:#D4FF8B;stop-color:color(display-p3 0.8314 1.0000 0.5451);stop-opacity:1;"/>
</linearGradient>
<linearGradient id="paint1_linear_4099_7392" x1="1420.11" y1="558.634" x2="579.369" y2="1406.89" gradientUnits="userSpaceOnUse">
<stop stop-color="#D4FF8B" style="stop-color:#D4FF8B;stop-color:color(display-p3 0.8314 1.0000 0.5451);stop-opacity:1;"/>
</linearGradient>
<linearGradient id="paint2_linear_4099_7392" x1="1420.11" y1="558.634" x2="579.369" y2="1406.89" gradientUnits="userSpaceOnUse">
<stop stop-color="#D4FF8B" style="stop-color:#D4FF8B;stop-color:color(display-p3 0.8314 1.0000 0.5451);stop-opacity:1;"/>
</linearGradient>
<linearGradient id="paint3_linear_4099_7392" x1="1420.11" y1="558.634" x2="579.369" y2="1406.89" gradientUnits="userSpaceOnUse">
<stop stop-color="#D4FF8B" style="stop-color:#D4FF8B;stop-color:color(display-p3 0.8314 1.0000 0.5451);stop-opacity:1;"/>
</linearGradient>
</defs>
</svg>
